G75*
G70*
%OFA0B0*%
%FSLAX24Y24*%
%IPPOS*%
%LPD*%
%AMOC8*
5,1,8,0,0,1.08239X$1,22.5*
%
%ADD10OC8,0.0600*%
%ADD11R,0.0472X0.0138*%
%ADD12C,0.1580*%
%ADD13C,0.0709*%
%ADD14C,0.0310*%
%ADD15C,0.0160*%
%ADD16C,0.0100*%
%ADD17C,0.0120*%
%ADD18C,0.0080*%
%ADD19C,0.0240*%
%ADD20C,0.0400*%
D10*
X001851Y005349D03*
X001851Y006349D03*
X001851Y007349D03*
X001851Y008349D03*
X001851Y009349D03*
X001851Y010349D03*
X001851Y011349D03*
X001851Y012349D03*
X001851Y013349D03*
X001851Y014349D03*
X001851Y015349D03*
X001851Y016349D03*
X001851Y017349D03*
X001851Y018349D03*
X002851Y018349D03*
X002851Y017349D03*
X002851Y016349D03*
X002851Y015349D03*
X002851Y014349D03*
X002851Y013349D03*
X002851Y012349D03*
X002851Y011349D03*
X002851Y010349D03*
X002851Y009349D03*
X002851Y008349D03*
X002851Y007349D03*
X002851Y006349D03*
X002851Y005349D03*
D11*
X005070Y006261D03*
X005070Y006517D03*
X005070Y006773D03*
X005070Y007029D03*
X005070Y007285D03*
X005070Y007541D03*
X005070Y007797D03*
X005070Y008052D03*
X007432Y008052D03*
X007432Y007797D03*
X007432Y007541D03*
X007432Y007285D03*
X007432Y007029D03*
X007432Y006773D03*
X007432Y006517D03*
X007432Y006261D03*
X007082Y011511D03*
X007082Y011767D03*
X007082Y012023D03*
X007082Y012279D03*
X007082Y012535D03*
X007082Y012791D03*
X007082Y013047D03*
X007082Y013302D03*
X004720Y013302D03*
X004720Y013047D03*
X004720Y012791D03*
X004720Y012535D03*
X004720Y012279D03*
X004720Y012023D03*
X004720Y011767D03*
X004720Y011511D03*
D12*
X025801Y026935D03*
X027651Y028116D03*
X025801Y029297D03*
D13*
X022290Y029679D03*
X020912Y029679D03*
X017890Y028629D03*
X016512Y028629D03*
X014290Y028629D03*
X012912Y028629D03*
X010290Y028629D03*
X008912Y028629D03*
X006790Y028629D03*
X005412Y028629D03*
X031101Y027218D03*
X031101Y025840D03*
X031101Y024462D03*
X031101Y022268D03*
X031101Y020890D03*
X031101Y019512D03*
X031101Y017368D03*
X031101Y015990D03*
X031101Y014612D03*
X031351Y009868D03*
X031351Y008490D03*
X031351Y006318D03*
X031351Y004940D03*
X026290Y003629D03*
X024912Y003629D03*
X022790Y003629D03*
X021412Y003629D03*
X016340Y003629D03*
X014962Y003629D03*
X012840Y003629D03*
X011462Y003629D03*
D14*
X009651Y004079D03*
X007951Y005529D03*
X007451Y004629D03*
X006201Y005029D03*
X008051Y007029D03*
X007901Y007429D03*
X009001Y006079D03*
X011301Y007329D03*
X011101Y008429D03*
X012451Y007679D03*
X012451Y006729D03*
X013251Y006129D03*
X013751Y004429D03*
X017601Y006629D03*
X016251Y008229D03*
X015301Y008779D03*
X012751Y008729D03*
X012451Y009379D03*
X011451Y009779D03*
X009851Y008729D03*
X009451Y009129D03*
X008001Y008979D03*
X008201Y010379D03*
X008601Y011079D03*
X007801Y011329D03*
X008451Y012579D03*
X009201Y012179D03*
X010701Y012179D03*
X012051Y013379D03*
X011451Y013929D03*
X011251Y015129D03*
X010151Y014929D03*
X010151Y014129D03*
X010651Y016929D03*
X009151Y016929D03*
X009151Y018479D03*
X008851Y019579D03*
X008301Y020079D03*
X006851Y020229D03*
X008251Y022079D03*
X007401Y022829D03*
X006201Y022779D03*
X006301Y024229D03*
X007451Y025579D03*
X008301Y027279D03*
X010501Y027279D03*
X010501Y030479D03*
X010901Y030479D03*
X012301Y030479D03*
X012701Y030479D03*
X014501Y030479D03*
X014901Y030479D03*
X015901Y030479D03*
X016301Y030479D03*
X018101Y030479D03*
X018501Y030479D03*
X020151Y027979D03*
X019101Y027279D03*
X018701Y027279D03*
X018551Y025479D03*
X019551Y024079D03*
X020301Y024929D03*
X022051Y025429D03*
X022551Y025429D03*
X023001Y025529D03*
X023301Y025829D03*
X023301Y026279D03*
X019251Y022579D03*
X017701Y020779D03*
X019551Y019079D03*
X020051Y019079D03*
X021051Y019729D03*
X021651Y019729D03*
X022201Y019729D03*
X021201Y018129D03*
X020501Y016979D03*
X019851Y016979D03*
X017201Y017129D03*
X016201Y017679D03*
X014301Y018129D03*
X013201Y017229D03*
X013201Y016829D03*
X013701Y015829D03*
X010651Y018479D03*
X013001Y021479D03*
X020901Y014179D03*
X021201Y013929D03*
X021001Y012529D03*
X021001Y012129D03*
X020101Y012129D03*
X020101Y011729D03*
X019701Y011729D03*
X019301Y011729D03*
X019301Y011029D03*
X019301Y010529D03*
X019301Y010029D03*
X019301Y009529D03*
X019801Y009529D03*
X019751Y008679D03*
X020251Y008679D03*
X019201Y008629D03*
X018051Y008979D03*
X019101Y007529D03*
X019551Y006829D03*
X020301Y005279D03*
X018251Y004429D03*
X023551Y005729D03*
X024751Y005929D03*
X024751Y005229D03*
X026351Y004379D03*
X027051Y007579D03*
X024501Y008979D03*
X023851Y009629D03*
X023851Y010129D03*
X024801Y010679D03*
X025251Y010679D03*
X025501Y011429D03*
X027251Y012879D03*
X027101Y013529D03*
X026801Y014529D03*
X024501Y013629D03*
X022501Y012129D03*
X022501Y011529D03*
X022501Y010929D03*
X022101Y010229D03*
X021201Y009829D03*
X020601Y010429D03*
X020601Y011029D03*
X020101Y012529D03*
X017501Y012229D03*
X017001Y012279D03*
X016351Y011579D03*
X015451Y011329D03*
X017501Y013629D03*
X022901Y016279D03*
X023551Y017129D03*
X024951Y017879D03*
X024651Y019279D03*
X024651Y019779D03*
X024651Y020279D03*
X024651Y020729D03*
X025401Y021579D03*
X023151Y021579D03*
X024101Y019279D03*
X028001Y017429D03*
X030301Y014179D03*
X029551Y014029D03*
X027651Y011979D03*
X023901Y008229D03*
X023851Y007479D03*
X031901Y013879D03*
X031901Y014429D03*
X029001Y021829D03*
X029101Y026629D03*
X029501Y026629D03*
X029901Y026629D03*
X028701Y026629D03*
X008701Y030479D03*
X008301Y030479D03*
X007401Y030479D03*
X007001Y030479D03*
X005201Y030479D03*
X004801Y030479D03*
X004651Y026329D03*
X004001Y025529D03*
X004701Y022729D03*
X002751Y021029D03*
X005551Y011629D03*
X004501Y011029D03*
X004751Y008779D03*
X003601Y008429D03*
X003501Y006829D03*
D15*
X000551Y004098D02*
X000551Y001529D01*
X009332Y001529D01*
X007322Y003539D01*
X006429Y003539D01*
X006272Y003539D01*
X005572Y004239D01*
X005461Y004350D01*
X005461Y006200D01*
X005461Y006358D01*
X006711Y007608D01*
X006822Y007719D01*
X007056Y007719D01*
X007056Y007869D01*
X007052Y007873D01*
X007028Y007914D01*
X007016Y007960D01*
X007016Y008052D01*
X007431Y008052D01*
X007431Y008053D01*
X007016Y008053D01*
X007016Y008145D01*
X007028Y008191D01*
X007052Y008232D01*
X007085Y008265D01*
X007126Y008289D01*
X007172Y008301D01*
X007432Y008301D01*
X007432Y008053D01*
X007432Y008053D01*
X007432Y008301D01*
X007692Y008301D01*
X007738Y008289D01*
X007779Y008265D01*
X007812Y008232D01*
X007836Y008191D01*
X007848Y008145D01*
X007848Y008145D01*
X007922Y008219D01*
X008079Y008219D01*
X008229Y008219D01*
X008341Y008108D01*
X008411Y008037D01*
X008411Y010852D01*
X008351Y010912D01*
X008306Y011020D01*
X008306Y011137D01*
X008351Y011246D01*
X008434Y011329D01*
X008542Y011374D01*
X008659Y011374D01*
X008768Y011329D01*
X008851Y011246D01*
X008896Y011137D01*
X008896Y011020D01*
X008851Y010912D01*
X008791Y010852D01*
X008791Y010137D01*
X008822Y010169D01*
X009011Y010358D01*
X009011Y011952D01*
X008951Y012012D01*
X008906Y012120D01*
X008906Y012237D01*
X008951Y012346D01*
X009034Y012429D01*
X009142Y012474D01*
X009259Y012474D01*
X009368Y012429D01*
X009451Y012346D01*
X009496Y012237D01*
X009496Y012120D01*
X009451Y012012D01*
X009391Y011952D01*
X009391Y010358D01*
X009391Y010200D01*
X009091Y009900D01*
X009091Y007508D01*
X010879Y005719D01*
X019822Y005719D01*
X021061Y006958D01*
X021172Y007069D01*
X023172Y007069D01*
X023556Y007453D01*
X023556Y007537D01*
X023601Y007646D01*
X023684Y007729D01*
X023792Y007774D01*
X023909Y007774D01*
X024018Y007729D01*
X024101Y007646D01*
X024146Y007537D01*
X024146Y007420D01*
X024101Y007312D01*
X027601Y007312D01*
X027601Y007471D02*
X024146Y007471D01*
X024108Y007629D02*
X027601Y007629D01*
X027601Y007788D02*
X019421Y007788D01*
X019421Y007720D02*
X019421Y008432D01*
X019451Y008462D01*
X019496Y008570D01*
X019496Y008687D01*
X019451Y008796D01*
X019368Y008879D01*
X019259Y008924D01*
X019142Y008924D01*
X019034Y008879D01*
X018951Y008796D01*
X018906Y008687D01*
X018906Y008570D01*
X018951Y008462D01*
X018981Y008432D01*
X018981Y007798D01*
X018934Y007779D01*
X018851Y007696D01*
X018806Y007587D01*
X018806Y007470D01*
X018851Y007362D01*
X018934Y007279D01*
X019042Y007234D01*
X019159Y007234D01*
X019268Y007279D01*
X019351Y007362D01*
X019396Y007470D01*
X019396Y007513D01*
X019421Y007538D01*
X019421Y007720D01*
X019421Y007629D02*
X023594Y007629D01*
X023556Y007471D02*
X019396Y007471D01*
X019301Y007312D02*
X023415Y007312D01*
X023257Y007153D02*
X012194Y007153D01*
X012179Y007139D02*
X012424Y007384D01*
X012509Y007384D01*
X012618Y007429D01*
X012701Y007512D01*
X012746Y007620D01*
X012746Y007737D01*
X012701Y007846D01*
X012618Y007929D01*
X012509Y007974D01*
X012392Y007974D01*
X012284Y007929D01*
X012201Y007846D01*
X012156Y007737D01*
X012156Y007653D01*
X012022Y007519D01*
X011528Y007519D01*
X011468Y007579D01*
X011359Y007624D01*
X011242Y007624D01*
X011134Y007579D01*
X011051Y007496D01*
X011006Y007387D01*
X011006Y007270D01*
X011051Y007162D01*
X011134Y007079D01*
X011242Y007034D01*
X011359Y007034D01*
X011468Y007079D01*
X011528Y007139D01*
X012022Y007139D01*
X012179Y007139D01*
X012353Y007312D02*
X018900Y007312D01*
X018806Y007471D02*
X012660Y007471D01*
X012746Y007629D02*
X018823Y007629D01*
X018955Y007788D02*
X012725Y007788D01*
X012576Y007946D02*
X016162Y007946D01*
X016192Y007934D02*
X016309Y007934D01*
X016418Y007979D01*
X016501Y008062D01*
X016546Y008170D01*
X016546Y008287D01*
X016501Y008396D01*
X016418Y008479D01*
X016309Y008524D01*
X016271Y008524D01*
X016271Y009170D01*
X016142Y009299D01*
X015671Y009770D01*
X015671Y011132D01*
X015701Y011162D01*
X015746Y011270D01*
X015746Y011387D01*
X015701Y011496D01*
X015618Y011579D01*
X015509Y011624D01*
X015392Y011624D01*
X015284Y011579D01*
X015201Y011496D01*
X015156Y011387D01*
X015156Y011270D01*
X015201Y011162D01*
X015231Y011132D01*
X015231Y009770D01*
X015231Y009588D01*
X015831Y008988D01*
X015831Y008320D01*
X015831Y008138D01*
X015960Y008009D01*
X016054Y008009D01*
X016084Y007979D01*
X016192Y007934D01*
X016339Y007946D02*
X018981Y007946D01*
X018981Y008105D02*
X016519Y008105D01*
X016546Y008263D02*
X018981Y008263D01*
X018981Y008422D02*
X016475Y008422D01*
X016271Y008580D02*
X018906Y008580D01*
X018927Y008739D02*
X016271Y008739D01*
X016271Y008897D02*
X019079Y008897D01*
X019051Y009079D02*
X018959Y009117D01*
X018889Y009187D01*
X018851Y009279D01*
X018851Y009379D01*
X018851Y012479D01*
X018851Y012639D01*
X015579Y012639D01*
X011396Y008455D01*
X011396Y008370D01*
X011351Y008262D01*
X011268Y008179D01*
X011159Y008134D01*
X011042Y008134D01*
X010934Y008179D01*
X010851Y008262D01*
X010806Y008370D01*
X010806Y008487D01*
X010851Y008596D01*
X010934Y008679D01*
X011042Y008724D01*
X011127Y008724D01*
X015422Y013019D01*
X015579Y013019D01*
X018867Y013019D01*
X018889Y013070D01*
X018959Y013141D01*
X019051Y013179D01*
X019151Y013179D01*
X021882Y013179D01*
X022522Y013819D01*
X022679Y013819D01*
X024274Y013819D01*
X024334Y013879D01*
X024442Y013924D01*
X024559Y013924D01*
X024668Y013879D01*
X024751Y013796D01*
X024796Y013687D01*
X024796Y013570D01*
X024751Y013462D01*
X024668Y013379D01*
X024559Y013334D01*
X024442Y013334D01*
X024334Y013379D01*
X024274Y013439D01*
X022679Y013439D01*
X022419Y013179D01*
X022951Y013179D01*
X023042Y013141D01*
X023113Y013070D01*
X023151Y012979D01*
X023151Y012879D01*
X023151Y009279D01*
X023113Y009187D01*
X023042Y009117D01*
X022951Y009079D01*
X022851Y009079D01*
X019051Y009079D01*
X018878Y009215D02*
X016226Y009215D01*
X016271Y009056D02*
X027601Y009056D01*
X027601Y009215D02*
X023124Y009215D01*
X023151Y009373D02*
X027601Y009373D01*
X027601Y009532D02*
X023151Y009532D01*
X023151Y009690D02*
X027601Y009690D01*
X027601Y009849D02*
X023151Y009849D01*
X023151Y010007D02*
X027601Y010007D01*
X027601Y010166D02*
X023151Y010166D01*
X023151Y010324D02*
X027601Y010324D01*
X027601Y010483D02*
X023151Y010483D01*
X023151Y010641D02*
X027601Y010641D01*
X027601Y010800D02*
X023151Y010800D01*
X023151Y010959D02*
X027601Y010959D01*
X027601Y011117D02*
X023151Y011117D01*
X023151Y011276D02*
X027601Y011276D01*
X027601Y011429D02*
X027601Y004347D01*
X026784Y003531D01*
X026784Y003727D01*
X026709Y003909D01*
X026570Y004048D01*
X026388Y004123D01*
X026191Y004123D01*
X026010Y004048D01*
X025871Y003909D01*
X025795Y003727D01*
X025795Y003530D01*
X025871Y003349D01*
X026010Y003210D01*
X026191Y003134D01*
X026388Y003134D01*
X024972Y001719D01*
X009679Y001719D01*
X009409Y001989D01*
X023322Y001989D01*
X023479Y001989D01*
X024041Y002550D01*
X024041Y002708D01*
X024041Y003800D01*
X024941Y004700D01*
X024941Y004858D01*
X024941Y005002D01*
X025001Y005062D01*
X025046Y005170D01*
X025046Y005287D01*
X025001Y005396D01*
X024918Y005479D01*
X024809Y005524D01*
X024692Y005524D01*
X024584Y005479D01*
X024501Y005396D01*
X024456Y005287D01*
X024456Y005170D01*
X024501Y005062D01*
X024561Y005002D01*
X024561Y004858D01*
X024141Y004437D01*
X024141Y005150D01*
X024644Y005654D01*
X024692Y005634D01*
X024809Y005634D01*
X024918Y005679D01*
X025001Y005762D01*
X025046Y005870D01*
X025046Y005987D01*
X025001Y006096D01*
X024918Y006179D01*
X024809Y006224D01*
X024692Y006224D01*
X024584Y006179D01*
X024501Y006096D01*
X024466Y006013D01*
X023872Y005419D01*
X023761Y005308D01*
X023761Y004408D01*
X023422Y004069D01*
X023311Y003958D01*
X023311Y002658D01*
X023222Y002569D01*
X009779Y002569D01*
X008841Y003507D01*
X010940Y003507D01*
X010941Y003504D02*
X010967Y003424D01*
X011005Y003349D01*
X011054Y003281D01*
X011114Y003221D01*
X011182Y003172D01*
X011257Y003134D01*
X011337Y003108D01*
X011420Y003094D01*
X011424Y003094D01*
X011424Y003590D01*
X011500Y003590D01*
X011500Y003094D01*
X011504Y003094D01*
X011587Y003108D01*
X011667Y003134D01*
X011742Y003172D01*
X011810Y003221D01*
X011869Y003281D01*
X011919Y003349D01*
X011957Y003424D01*
X011983Y003504D01*
X011996Y003587D01*
X011996Y003591D01*
X011500Y003591D01*
X011500Y003667D01*
X011996Y003667D01*
X011996Y003671D01*
X011983Y003754D01*
X011957Y003834D01*
X011919Y003909D01*
X011869Y003977D01*
X011810Y004036D01*
X011742Y004086D01*
X011667Y004124D01*
X011587Y004150D01*
X011504Y004163D01*
X011500Y004163D01*
X011500Y003667D01*
X011424Y003667D01*
X011424Y004163D01*
X011420Y004163D01*
X011337Y004150D01*
X011257Y004124D01*
X011182Y004086D01*
X011114Y004036D01*
X011054Y003977D01*
X011005Y003909D01*
X010967Y003834D01*
X010941Y003754D01*
X010927Y003671D01*
X010927Y003667D01*
X011423Y003667D01*
X011423Y003591D01*
X010927Y003591D01*
X010927Y003587D01*
X010941Y003504D01*
X011005Y003348D02*
X009000Y003348D01*
X009158Y003190D02*
X011157Y003190D01*
X011424Y003190D02*
X011500Y003190D01*
X011500Y003348D02*
X011424Y003348D01*
X011424Y003507D02*
X011500Y003507D01*
X011500Y003666D02*
X012345Y003666D01*
X012345Y003727D02*
X012345Y003530D01*
X012421Y003349D01*
X012560Y003210D01*
X012741Y003134D01*
X012938Y003134D01*
X013120Y003210D01*
X013259Y003349D01*
X013334Y003530D01*
X013334Y003727D01*
X013259Y003909D01*
X013120Y004048D01*
X012938Y004123D01*
X012741Y004123D01*
X012560Y004048D01*
X012421Y003909D01*
X012345Y003727D01*
X012386Y003824D02*
X011960Y003824D01*
X011864Y003983D02*
X012494Y003983D01*
X012355Y003507D02*
X011983Y003507D01*
X011919Y003348D02*
X012421Y003348D01*
X012608Y003190D02*
X011767Y003190D01*
X011423Y003666D02*
X008841Y003666D01*
X008841Y003824D02*
X009495Y003824D01*
X009484Y003829D02*
X009592Y003784D01*
X009709Y003784D01*
X009818Y003829D01*
X009848Y003859D01*
X010510Y003859D01*
X010692Y003859D01*
X011142Y004309D01*
X013481Y004309D01*
X013501Y004262D01*
X013584Y004179D01*
X013692Y004134D01*
X013809Y004134D01*
X013918Y004179D01*
X013948Y004209D01*
X018054Y004209D01*
X018084Y004179D01*
X018192Y004134D01*
X018309Y004134D01*
X018418Y004179D01*
X018501Y004262D01*
X018546Y004370D01*
X018546Y004487D01*
X018501Y004596D01*
X018418Y004679D01*
X018309Y004724D01*
X018192Y004724D01*
X018084Y004679D01*
X018054Y004649D01*
X013948Y004649D01*
X013918Y004679D01*
X013809Y004724D01*
X013767Y004724D01*
X013742Y004749D01*
X013560Y004749D01*
X010960Y004749D01*
X010831Y004620D01*
X010510Y004299D01*
X009848Y004299D01*
X009818Y004329D01*
X009709Y004374D01*
X009592Y004374D01*
X009484Y004329D01*
X009401Y004246D01*
X009356Y004137D01*
X009356Y004020D01*
X009401Y003912D01*
X009484Y003829D01*
X009371Y003983D02*
X008841Y003983D01*
X008841Y004141D02*
X009357Y004141D01*
X009454Y004300D02*
X008841Y004300D01*
X008841Y004458D02*
X010669Y004458D01*
X010511Y004300D02*
X009847Y004300D01*
X009651Y004079D02*
X010601Y004079D01*
X011051Y004529D01*
X013651Y004529D01*
X013751Y004429D01*
X018251Y004429D01*
X018517Y004300D02*
X023653Y004300D01*
X023761Y004458D02*
X018546Y004458D01*
X018480Y004617D02*
X023761Y004617D01*
X023761Y004775D02*
X008841Y004775D01*
X008841Y004617D02*
X010828Y004617D01*
X011133Y004300D02*
X013485Y004300D01*
X013674Y004141D02*
X011614Y004141D01*
X011500Y004141D02*
X011424Y004141D01*
X011310Y004141D02*
X010974Y004141D01*
X011060Y003983D02*
X010816Y003983D01*
X010963Y003824D02*
X009807Y003824D01*
X009317Y003031D02*
X023311Y003031D01*
X023311Y002873D02*
X009475Y002873D01*
X009634Y002714D02*
X023311Y002714D01*
X023311Y003190D02*
X023022Y003190D01*
X023070Y003210D02*
X023209Y003349D01*
X023284Y003530D01*
X023284Y003727D01*
X023209Y003909D01*
X023070Y004048D01*
X022888Y004123D01*
X022691Y004123D01*
X022510Y004048D01*
X022371Y003909D01*
X022295Y003727D01*
X022295Y003530D01*
X022371Y003349D01*
X022510Y003210D01*
X022691Y003134D01*
X022888Y003134D01*
X023070Y003210D01*
X023208Y003348D02*
X023311Y003348D01*
X023311Y003507D02*
X023274Y003507D01*
X023284Y003666D02*
X023311Y003666D01*
X023311Y003824D02*
X023244Y003824D01*
X023336Y003983D02*
X023135Y003983D01*
X023494Y004141D02*
X021564Y004141D01*
X021537Y004150D02*
X021454Y004163D01*
X021450Y004163D01*
X021450Y003667D01*
X021946Y003667D01*
X021946Y003671D01*
X021933Y003754D01*
X021907Y003834D01*
X021869Y003909D01*
X021819Y003977D01*
X021760Y004036D01*
X021692Y004086D01*
X021617Y004124D01*
X021537Y004150D01*
X021450Y004141D02*
X021374Y004141D01*
X021374Y004163D02*
X021370Y004163D01*
X021287Y004150D01*
X021207Y004124D01*
X021132Y004086D01*
X021064Y004036D01*
X021004Y003977D01*
X020955Y003909D01*
X020917Y003834D01*
X020891Y003754D01*
X020877Y003671D01*
X020877Y003667D01*
X021373Y003667D01*
X021373Y003591D01*
X020877Y003591D01*
X020877Y003587D01*
X020891Y003504D01*
X020917Y003424D01*
X020955Y003349D01*
X021004Y003281D01*
X021064Y003221D01*
X021132Y003172D01*
X021207Y003134D01*
X021287Y003108D01*
X021370Y003094D01*
X021374Y003094D01*
X021374Y003590D01*
X021450Y003590D01*
X021450Y003094D01*
X021454Y003094D01*
X021537Y003108D01*
X021617Y003134D01*
X021692Y003172D01*
X021760Y003221D01*
X021819Y003281D01*
X021869Y003349D01*
X021907Y003424D01*
X021933Y003504D01*
X021946Y003587D01*
X021946Y003591D01*
X021450Y003591D01*
X021450Y003667D01*
X021374Y003667D01*
X021374Y004163D01*
X021260Y004141D02*
X018327Y004141D01*
X018174Y004141D02*
X015114Y004141D01*
X015087Y004150D02*
X015004Y004163D01*
X015000Y004163D01*
X015000Y003667D01*
X015496Y003667D01*
X015496Y003671D01*
X015483Y003754D01*
X015457Y003834D01*
X015419Y003909D01*
X015369Y003977D01*
X015310Y004036D01*
X015242Y004086D01*
X015167Y004124D01*
X015087Y004150D01*
X015000Y004141D02*
X014924Y004141D01*
X014924Y004163D02*
X014920Y004163D01*
X014837Y004150D01*
X014757Y004124D01*
X014682Y004086D01*
X014614Y004036D01*
X014554Y003977D01*
X014505Y003909D01*
X014467Y003834D01*
X014441Y003754D01*
X014427Y003671D01*
X014427Y003667D01*
X014923Y003667D01*
X014923Y003591D01*
X014427Y003591D01*
X014427Y003587D01*
X014441Y003504D01*
X014467Y003424D01*
X014505Y003349D01*
X014554Y003281D01*
X014614Y003221D01*
X014682Y003172D01*
X014757Y003134D01*
X014837Y003108D01*
X014920Y003094D01*
X014924Y003094D01*
X014924Y003590D01*
X015000Y003590D01*
X015000Y003094D01*
X015004Y003094D01*
X015087Y003108D01*
X015167Y003134D01*
X015242Y003172D01*
X015310Y003221D01*
X015369Y003281D01*
X015419Y003349D01*
X015457Y003424D01*
X015483Y003504D01*
X015496Y003587D01*
X015496Y003591D01*
X015000Y003591D01*
X015000Y003667D01*
X014924Y003667D01*
X014924Y004163D01*
X014810Y004141D02*
X013827Y004141D01*
X013294Y003824D02*
X014463Y003824D01*
X014560Y003983D02*
X013185Y003983D01*
X013334Y003666D02*
X014923Y003666D01*
X015000Y003666D02*
X015845Y003666D01*
X015845Y003727D02*
X015845Y003530D01*
X015921Y003349D01*
X016060Y003210D01*
X016241Y003134D01*
X016438Y003134D01*
X016620Y003210D01*
X016759Y003349D01*
X016834Y003530D01*
X016834Y003727D01*
X016759Y003909D01*
X016620Y004048D01*
X016438Y004123D01*
X016241Y004123D01*
X016060Y004048D01*
X015921Y003909D01*
X015845Y003727D01*
X015886Y003824D02*
X015460Y003824D01*
X015364Y003983D02*
X015994Y003983D01*
X015855Y003507D02*
X015483Y003507D01*
X015419Y003348D02*
X015921Y003348D01*
X016108Y003190D02*
X015267Y003190D01*
X015000Y003190D02*
X014924Y003190D01*
X014924Y003348D02*
X015000Y003348D01*
X015000Y003507D02*
X014924Y003507D01*
X014924Y003824D02*
X015000Y003824D01*
X015000Y003983D02*
X014924Y003983D01*
X014440Y003507D02*
X013324Y003507D01*
X013258Y003348D02*
X014505Y003348D01*
X014657Y003190D02*
X013072Y003190D01*
X011500Y003824D02*
X011424Y003824D01*
X011424Y003983D02*
X011500Y003983D01*
X010479Y005089D02*
X020074Y005089D01*
X020134Y005029D01*
X020242Y004984D01*
X020359Y004984D01*
X020468Y005029D01*
X020551Y005112D01*
X020596Y005220D01*
X020596Y005337D01*
X020551Y005446D01*
X020468Y005529D01*
X020359Y005574D01*
X020242Y005574D01*
X020195Y005554D01*
X021329Y006689D01*
X023172Y006689D01*
X023329Y006689D01*
X023824Y007184D01*
X023909Y007184D01*
X024018Y007229D01*
X024101Y007312D01*
X023794Y007153D02*
X027601Y007153D01*
X027601Y006995D02*
X023636Y006995D01*
X023477Y006836D02*
X027601Y006836D01*
X027601Y006678D02*
X021319Y006678D01*
X021160Y006519D02*
X027601Y006519D01*
X027601Y006361D02*
X021001Y006361D01*
X020843Y006202D02*
X024640Y006202D01*
X024862Y006202D02*
X027601Y006202D01*
X027601Y006044D02*
X025022Y006044D01*
X025046Y005885D02*
X027601Y005885D01*
X027601Y005727D02*
X024966Y005727D01*
X024987Y005409D02*
X027601Y005409D01*
X027601Y005251D02*
X025046Y005251D01*
X025014Y005092D02*
X027601Y005092D01*
X027601Y004934D02*
X024941Y004934D01*
X024941Y004775D02*
X027601Y004775D01*
X027601Y004617D02*
X024857Y004617D01*
X024699Y004458D02*
X027601Y004458D01*
X027553Y004300D02*
X024540Y004300D01*
X024382Y004141D02*
X024760Y004141D01*
X024787Y004150D02*
X024707Y004124D01*
X024632Y004086D01*
X024564Y004036D01*
X024504Y003977D01*
X024455Y003909D01*
X024417Y003834D01*
X024391Y003754D01*
X024377Y003671D01*
X024377Y003667D01*
X024873Y003667D01*
X024873Y003591D01*
X024377Y003591D01*
X024377Y003587D01*
X024391Y003504D01*
X024417Y003424D01*
X024455Y003349D01*
X024504Y003281D01*
X024564Y003221D01*
X024632Y003172D01*
X024707Y003134D01*
X024787Y003108D01*
X024870Y003094D01*
X024874Y003094D01*
X024874Y003590D01*
X024950Y003590D01*
X024950Y003094D01*
X024954Y003094D01*
X025037Y003108D01*
X025117Y003134D01*
X025192Y003172D01*
X025260Y003221D01*
X025319Y003281D01*
X025369Y003349D01*
X025407Y003424D01*
X025433Y003504D01*
X025446Y003587D01*
X025446Y003591D01*
X024950Y003591D01*
X024950Y003667D01*
X025446Y003667D01*
X025446Y003671D01*
X025433Y003754D01*
X025407Y003834D01*
X025369Y003909D01*
X025319Y003977D01*
X025260Y004036D01*
X025192Y004086D01*
X025117Y004124D01*
X025037Y004150D01*
X024954Y004163D01*
X024950Y004163D01*
X024950Y003667D01*
X024874Y003667D01*
X024874Y004163D01*
X024870Y004163D01*
X024787Y004150D01*
X024874Y004141D02*
X024950Y004141D01*
X025064Y004141D02*
X027394Y004141D01*
X027236Y003983D02*
X026635Y003983D01*
X026744Y003824D02*
X027077Y003824D01*
X026919Y003666D02*
X026784Y003666D01*
X026285Y003031D02*
X024041Y003031D01*
X024041Y002873D02*
X026126Y002873D01*
X025968Y002714D02*
X024041Y002714D01*
X024041Y002556D02*
X025809Y002556D01*
X025650Y002397D02*
X023888Y002397D01*
X023729Y002239D02*
X025492Y002239D01*
X025333Y002080D02*
X023571Y002080D01*
X024041Y003190D02*
X024607Y003190D01*
X024455Y003348D02*
X024041Y003348D01*
X024041Y003507D02*
X024390Y003507D01*
X024413Y003824D02*
X024065Y003824D01*
X024041Y003666D02*
X024873Y003666D01*
X024950Y003666D02*
X025795Y003666D01*
X025805Y003507D02*
X025433Y003507D01*
X025369Y003348D02*
X025871Y003348D01*
X026058Y003190D02*
X025217Y003190D01*
X024950Y003190D02*
X024874Y003190D01*
X024874Y003348D02*
X024950Y003348D01*
X024950Y003507D02*
X024874Y003507D01*
X024874Y003824D02*
X024950Y003824D01*
X024950Y003983D02*
X024874Y003983D01*
X024510Y003983D02*
X024223Y003983D01*
X024162Y004458D02*
X024141Y004458D01*
X024141Y004617D02*
X024320Y004617D01*
X024479Y004775D02*
X024141Y004775D01*
X024141Y004934D02*
X024561Y004934D01*
X024488Y005092D02*
X024141Y005092D01*
X024242Y005251D02*
X024456Y005251D01*
X024400Y005409D02*
X024514Y005409D01*
X024559Y005568D02*
X027601Y005568D01*
X025944Y003983D02*
X025314Y003983D01*
X025410Y003824D02*
X025836Y003824D01*
X024021Y005568D02*
X020373Y005568D01*
X020228Y005568D02*
X020209Y005568D01*
X020367Y005727D02*
X024180Y005727D01*
X024338Y005885D02*
X020526Y005885D01*
X020684Y006044D02*
X024479Y006044D01*
X023863Y005409D02*
X020566Y005409D01*
X020596Y005251D02*
X023761Y005251D01*
X023761Y005092D02*
X020532Y005092D01*
X019830Y005727D02*
X010872Y005727D01*
X010713Y005885D02*
X019988Y005885D01*
X020147Y006044D02*
X010555Y006044D01*
X010396Y006202D02*
X020305Y006202D01*
X020464Y006361D02*
X010238Y006361D01*
X010079Y006519D02*
X020623Y006519D01*
X020781Y006678D02*
X009920Y006678D01*
X009762Y006836D02*
X020940Y006836D01*
X021098Y006995D02*
X009603Y006995D01*
X009445Y007153D02*
X011059Y007153D01*
X011006Y007312D02*
X009286Y007312D01*
X009128Y007471D02*
X011040Y007471D01*
X010850Y008263D02*
X009091Y008263D01*
X009091Y008105D02*
X015864Y008105D01*
X015831Y008263D02*
X011351Y008263D01*
X011396Y008422D02*
X015831Y008422D01*
X015831Y008580D02*
X015519Y008580D01*
X015551Y008612D02*
X015596Y008720D01*
X015596Y008837D01*
X015551Y008946D01*
X015468Y009029D01*
X015359Y009074D01*
X015242Y009074D01*
X015134Y009029D01*
X015051Y008946D01*
X015039Y008919D01*
X012978Y008919D01*
X012918Y008979D01*
X012809Y009024D01*
X012692Y009024D01*
X012584Y008979D01*
X012501Y008896D01*
X012456Y008787D01*
X012456Y008670D01*
X012501Y008562D01*
X012584Y008479D01*
X012692Y008434D01*
X012809Y008434D01*
X012918Y008479D01*
X012978Y008539D01*
X015124Y008539D01*
X015134Y008529D01*
X015242Y008484D01*
X015359Y008484D01*
X015468Y008529D01*
X015551Y008612D01*
X015596Y008739D02*
X015831Y008739D01*
X015831Y008897D02*
X015571Y008897D01*
X015402Y009056D02*
X015762Y009056D01*
X015604Y009215D02*
X012155Y009215D01*
X012314Y009373D02*
X015445Y009373D01*
X015287Y009532D02*
X012472Y009532D01*
X012631Y009690D02*
X015231Y009690D01*
X015231Y009849D02*
X012789Y009849D01*
X012948Y010007D02*
X015231Y010007D01*
X015231Y010166D02*
X013106Y010166D01*
X013265Y010324D02*
X015231Y010324D01*
X015231Y010483D02*
X013424Y010483D01*
X013582Y010641D02*
X015231Y010641D01*
X015231Y010800D02*
X013741Y010800D01*
X013899Y010959D02*
X015231Y010959D01*
X015231Y011117D02*
X014058Y011117D01*
X014216Y011276D02*
X015156Y011276D01*
X015175Y011434D02*
X014375Y011434D01*
X014533Y011593D02*
X015317Y011593D01*
X015585Y011593D02*
X018851Y011593D01*
X018851Y011751D02*
X014692Y011751D01*
X014850Y011910D02*
X018851Y011910D01*
X018851Y012068D02*
X015009Y012068D01*
X015167Y012227D02*
X018851Y012227D01*
X018851Y012385D02*
X015326Y012385D01*
X015485Y012544D02*
X018851Y012544D01*
X018868Y013020D02*
X008610Y013020D01*
X008540Y012861D02*
X015264Y012861D01*
X015106Y012702D02*
X008719Y012702D01*
X008701Y012746D02*
X008618Y012829D01*
X008509Y012874D01*
X008464Y012874D01*
X009929Y014339D01*
X010079Y014339D01*
X026574Y014339D01*
X026634Y014279D01*
X026742Y014234D01*
X026859Y014234D01*
X026968Y014279D01*
X027051Y014362D01*
X027096Y014470D01*
X027096Y014587D01*
X027051Y014696D01*
X026968Y014779D01*
X026859Y014824D01*
X026742Y014824D01*
X026634Y014779D01*
X026574Y014719D01*
X010079Y014719D01*
X009772Y014719D01*
X009661Y014608D01*
X008191Y013137D01*
X008191Y014850D01*
X008191Y015008D01*
X006941Y016258D01*
X006941Y019500D01*
X006941Y019658D01*
X006591Y020008D01*
X006591Y020086D01*
X006601Y020062D01*
X006684Y019979D01*
X006792Y019934D01*
X006877Y019934D01*
X007422Y019389D01*
X007579Y019389D01*
X008624Y019389D01*
X008684Y019329D01*
X008792Y019284D01*
X008909Y019284D01*
X009018Y019329D01*
X009101Y019412D01*
X009146Y019520D01*
X009146Y019605D01*
X009179Y019639D01*
X014122Y019639D01*
X015561Y018200D01*
X015561Y017800D01*
X015672Y017689D01*
X015872Y017489D01*
X015974Y017489D01*
X016034Y017429D01*
X016142Y017384D01*
X016259Y017384D01*
X016368Y017429D01*
X016451Y017512D01*
X016480Y017581D01*
X016906Y017155D01*
X016906Y017070D01*
X016951Y016962D01*
X017034Y016879D01*
X017142Y016834D01*
X017259Y016834D01*
X017368Y016879D01*
X017451Y016962D01*
X017496Y017070D01*
X017496Y017187D01*
X017451Y017296D01*
X017368Y017379D01*
X017259Y017424D01*
X017174Y017424D01*
X014329Y020269D01*
X014172Y020269D01*
X008528Y020269D01*
X008468Y020329D01*
X008359Y020374D01*
X008242Y020374D01*
X008134Y020329D01*
X008051Y020246D01*
X008006Y020137D01*
X008006Y020020D01*
X008051Y019912D01*
X008134Y019829D01*
X008242Y019784D01*
X008359Y019784D01*
X008468Y019829D01*
X008528Y019889D01*
X008892Y019889D01*
X008877Y019874D01*
X008792Y019874D01*
X008684Y019829D01*
X008624Y019769D01*
X007579Y019769D01*
X007146Y020203D01*
X007146Y020287D01*
X007101Y020396D01*
X007018Y020479D01*
X006909Y020524D01*
X006792Y020524D01*
X006684Y020479D01*
X006601Y020396D01*
X006591Y020372D01*
X006591Y021750D01*
X007179Y022339D01*
X007291Y022450D01*
X007291Y022555D01*
X007342Y022534D01*
X007427Y022534D01*
X007966Y021994D01*
X008001Y021912D01*
X008084Y021829D01*
X008192Y021784D01*
X008309Y021784D01*
X008418Y021829D01*
X008501Y021912D01*
X008546Y022020D01*
X008546Y022137D01*
X008501Y022246D01*
X008418Y022329D01*
X008309Y022374D01*
X008192Y022374D01*
X008144Y022354D01*
X007696Y022803D01*
X007696Y022887D01*
X007651Y022996D01*
X007568Y023079D01*
X007459Y023124D01*
X007342Y023124D01*
X007234Y023079D01*
X007177Y023022D01*
X006691Y023508D01*
X006579Y023619D01*
X005479Y023619D01*
X005322Y023619D01*
X004727Y023024D01*
X004642Y023024D01*
X004534Y022979D01*
X004451Y022896D01*
X004406Y022787D01*
X004406Y022670D01*
X004451Y022562D01*
X004534Y022479D01*
X004642Y022434D01*
X004759Y022434D01*
X004868Y022479D01*
X004951Y022562D01*
X004996Y022670D01*
X004996Y022755D01*
X005479Y023239D01*
X006422Y023239D01*
X006911Y022750D01*
X006911Y022608D01*
X006391Y022087D01*
X006391Y022552D01*
X006451Y022612D01*
X006496Y022720D01*
X006496Y022837D01*
X006451Y022946D01*
X006368Y023029D01*
X006259Y023074D01*
X006142Y023074D01*
X006034Y023029D01*
X005951Y022946D01*
X005906Y022837D01*
X005906Y022720D01*
X005951Y022612D01*
X006011Y022552D01*
X006011Y019750D01*
X006122Y019639D01*
X006361Y019400D01*
X006361Y016050D01*
X006472Y015939D01*
X007511Y014900D01*
X007511Y013058D01*
X007458Y013005D01*
X007458Y013119D01*
X007462Y013123D01*
X007486Y013164D01*
X007498Y013210D01*
X007498Y013302D01*
X007082Y013302D01*
X007082Y013303D01*
X007082Y013303D01*
X007082Y013551D01*
X007342Y013551D01*
X007388Y013539D01*
X007429Y013515D01*
X007462Y013482D01*
X007486Y013441D01*
X007498Y013395D01*
X007498Y013303D01*
X007082Y013303D01*
X007082Y013551D01*
X006822Y013551D01*
X006776Y013539D01*
X006735Y013515D01*
X006702Y013482D01*
X006678Y013441D01*
X006666Y013395D01*
X006666Y013303D01*
X007081Y013303D01*
X007081Y013302D01*
X006666Y013302D01*
X006666Y013210D01*
X006678Y013164D01*
X006702Y013123D01*
X006706Y013119D01*
X006706Y012920D01*
X006707Y012919D01*
X006706Y012918D01*
X006706Y012664D01*
X006707Y012663D01*
X006706Y012662D01*
X006706Y012408D01*
X006707Y012407D01*
X006706Y012406D01*
X006706Y012206D01*
X006702Y012202D01*
X006678Y012161D01*
X006666Y012116D01*
X006666Y012023D01*
X007081Y012023D01*
X007081Y012023D01*
X006666Y012023D01*
X006666Y011930D01*
X006675Y011895D01*
X006666Y011860D01*
X006666Y011767D01*
X007081Y011767D01*
X007081Y011767D01*
X006666Y011767D01*
X006666Y011674D01*
X006678Y011629D01*
X006702Y011588D01*
X006706Y011584D01*
X006706Y011384D01*
X006788Y011302D01*
X007008Y011302D01*
X007364Y010946D01*
X007481Y010829D01*
X007784Y010829D01*
X007934Y010829D01*
X008651Y011546D01*
X008651Y011712D01*
X008651Y012362D01*
X008701Y012412D01*
X008746Y012520D01*
X008746Y012637D01*
X008701Y012746D01*
X008746Y012544D02*
X014947Y012544D01*
X014789Y012385D02*
X009411Y012385D01*
X009496Y012227D02*
X014630Y012227D01*
X014472Y012068D02*
X009474Y012068D01*
X009391Y011910D02*
X014313Y011910D01*
X014155Y011751D02*
X009391Y011751D01*
X009391Y011593D02*
X013996Y011593D01*
X013837Y011434D02*
X009391Y011434D01*
X009391Y011276D02*
X013679Y011276D01*
X013520Y011117D02*
X009391Y011117D01*
X009391Y010959D02*
X013362Y010959D01*
X013203Y010800D02*
X009391Y010800D01*
X009391Y010641D02*
X013045Y010641D01*
X012886Y010483D02*
X009391Y010483D01*
X009391Y010324D02*
X012728Y010324D01*
X012569Y010166D02*
X009356Y010166D01*
X009198Y010007D02*
X011262Y010007D01*
X011284Y010029D02*
X011201Y009946D01*
X011156Y009837D01*
X011156Y009753D01*
X010722Y009319D01*
X009678Y009319D01*
X009618Y009379D01*
X009509Y009424D01*
X009392Y009424D01*
X009284Y009379D01*
X009201Y009296D01*
X009156Y009187D01*
X009156Y009070D01*
X009201Y008962D01*
X009284Y008879D01*
X009392Y008834D01*
X009509Y008834D01*
X009618Y008879D01*
X009678Y008939D01*
X010722Y008939D01*
X010879Y008939D01*
X011424Y009484D01*
X011509Y009484D01*
X011618Y009529D01*
X011701Y009612D01*
X011746Y009720D01*
X011746Y009837D01*
X011701Y009946D01*
X011618Y010029D01*
X011509Y010074D01*
X011392Y010074D01*
X011284Y010029D01*
X011160Y009849D02*
X009091Y009849D01*
X009091Y009690D02*
X011093Y009690D01*
X010935Y009532D02*
X009091Y009532D01*
X009091Y009373D02*
X009278Y009373D01*
X009167Y009215D02*
X009091Y009215D01*
X009091Y009056D02*
X009162Y009056D01*
X009091Y008897D02*
X009265Y008897D01*
X009091Y008739D02*
X011142Y008739D01*
X011301Y008897D02*
X009637Y008897D01*
X009091Y008580D02*
X010844Y008580D01*
X010806Y008422D02*
X009091Y008422D01*
X009091Y007946D02*
X012326Y007946D01*
X012177Y007788D02*
X009091Y007788D01*
X009091Y007629D02*
X012132Y007629D01*
X012493Y008580D02*
X011521Y008580D01*
X011680Y008739D02*
X012456Y008739D01*
X012502Y008897D02*
X011838Y008897D01*
X011997Y009056D02*
X015199Y009056D01*
X015451Y009679D02*
X016051Y009079D01*
X016051Y008229D01*
X016251Y008229D01*
X016068Y009373D02*
X018851Y009373D01*
X018851Y009532D02*
X015909Y009532D01*
X015751Y009690D02*
X018851Y009690D01*
X018851Y009849D02*
X015671Y009849D01*
X015671Y010007D02*
X018851Y010007D01*
X018851Y010166D02*
X015671Y010166D01*
X015671Y010324D02*
X018851Y010324D01*
X018851Y010483D02*
X015671Y010483D01*
X015671Y010641D02*
X018851Y010641D01*
X018851Y010800D02*
X015671Y010800D01*
X015671Y010959D02*
X018851Y010959D01*
X018851Y011117D02*
X015671Y011117D01*
X015746Y011276D02*
X018851Y011276D01*
X018851Y011434D02*
X015726Y011434D01*
X015451Y011329D02*
X015451Y009679D01*
X012411Y010007D02*
X011639Y010007D01*
X011741Y009849D02*
X012252Y009849D01*
X012093Y009690D02*
X011733Y009690D01*
X011621Y009532D02*
X011935Y009532D01*
X011776Y009373D02*
X011314Y009373D01*
X011155Y009215D02*
X011618Y009215D01*
X011459Y009056D02*
X010997Y009056D01*
X010776Y009373D02*
X009624Y009373D01*
X008819Y010166D02*
X008791Y010166D01*
X008791Y010324D02*
X008978Y010324D01*
X009011Y010483D02*
X008791Y010483D01*
X008791Y010641D02*
X009011Y010641D01*
X009011Y010800D02*
X008791Y010800D01*
X008870Y010959D02*
X009011Y010959D01*
X009011Y011117D02*
X008896Y011117D01*
X008821Y011276D02*
X009011Y011276D01*
X009011Y011434D02*
X008539Y011434D01*
X008651Y011593D02*
X009011Y011593D01*
X009011Y011751D02*
X008651Y011751D01*
X008651Y011910D02*
X009011Y011910D01*
X008927Y012068D02*
X008651Y012068D01*
X008651Y012227D02*
X008906Y012227D01*
X008990Y012385D02*
X008675Y012385D01*
X008251Y012362D02*
X008251Y011712D01*
X008043Y011504D01*
X007968Y011579D01*
X007859Y011624D01*
X007742Y011624D01*
X007634Y011579D01*
X007551Y011496D01*
X007506Y011387D01*
X007506Y011370D01*
X007458Y011418D01*
X007458Y011584D01*
X007462Y011588D01*
X007486Y011629D01*
X007498Y011674D01*
X007498Y011767D01*
X007498Y011860D01*
X007489Y011895D01*
X007498Y011930D01*
X007498Y012023D01*
X007498Y012116D01*
X007489Y012149D01*
X007712Y012149D01*
X007722Y012139D01*
X007879Y012139D01*
X008179Y012439D01*
X008187Y012446D01*
X008201Y012412D01*
X008251Y012362D01*
X008227Y012385D02*
X008126Y012385D01*
X008251Y012227D02*
X007968Y012227D01*
X008251Y012068D02*
X007498Y012068D01*
X007498Y012023D02*
X007082Y012023D01*
X007082Y012023D01*
X007498Y012023D01*
X007493Y011910D02*
X008251Y011910D01*
X008251Y011751D02*
X007498Y011751D01*
X007498Y011767D02*
X007082Y011767D01*
X007498Y011767D01*
X007465Y011593D02*
X007667Y011593D01*
X007525Y011434D02*
X007458Y011434D01*
X007193Y011117D02*
X004858Y011117D01*
X004891Y011150D02*
X004891Y011302D01*
X005014Y011302D01*
X005096Y011384D01*
X005096Y011584D01*
X005100Y011588D01*
X005124Y011629D01*
X005136Y011674D01*
X005136Y011767D01*
X005136Y011860D01*
X005126Y011895D01*
X005136Y011930D01*
X005136Y012023D01*
X005136Y012116D01*
X005124Y012161D01*
X005100Y012202D01*
X005096Y012206D01*
X005096Y012406D01*
X005095Y012407D01*
X005096Y012408D01*
X005096Y012662D01*
X005095Y012663D01*
X005096Y012664D01*
X005096Y012918D01*
X005095Y012919D01*
X005096Y012920D01*
X005096Y013119D01*
X005100Y013123D01*
X005124Y013164D01*
X005136Y013210D01*
X005136Y013302D01*
X004720Y013302D01*
X004720Y013303D01*
X004719Y013303D01*
X004719Y013302D01*
X004303Y013302D01*
X004303Y013245D01*
X004241Y013308D01*
X004241Y013700D01*
X004241Y013858D01*
X003691Y014408D01*
X003579Y014519D01*
X003291Y014519D01*
X003291Y014531D01*
X003033Y014789D01*
X002669Y014789D01*
X002411Y014531D01*
X002411Y014167D01*
X002669Y013909D01*
X003033Y013909D01*
X003263Y014139D01*
X003422Y014139D01*
X003861Y013700D01*
X003861Y013287D01*
X003609Y013539D01*
X003452Y013539D01*
X003283Y013539D01*
X003033Y013789D01*
X002669Y013789D01*
X002411Y013531D01*
X002411Y013167D01*
X002669Y012909D01*
X003033Y012909D01*
X003283Y013159D01*
X003452Y013159D01*
X003886Y012725D01*
X003097Y012725D01*
X003033Y012789D01*
X002669Y012789D01*
X002411Y012531D01*
X002411Y012167D01*
X002669Y011909D01*
X003033Y011909D01*
X003291Y012167D01*
X003291Y012345D01*
X003948Y012345D01*
X003822Y012219D01*
X003711Y012108D01*
X003711Y009478D01*
X003022Y008789D01*
X002669Y008789D01*
X002541Y008661D01*
X002541Y008770D01*
X002679Y008909D01*
X003033Y008909D01*
X003291Y009167D01*
X003291Y009531D01*
X003033Y009789D01*
X002669Y009789D01*
X002411Y009531D01*
X002411Y009178D01*
X002161Y008928D01*
X002161Y008770D01*
X002161Y008661D01*
X002033Y008789D01*
X001669Y008789D01*
X001411Y008531D01*
X001411Y008167D01*
X001669Y007909D01*
X002033Y007909D01*
X002193Y008068D01*
X002272Y007989D01*
X002570Y007691D01*
X002411Y007531D01*
X002411Y007167D01*
X002669Y006909D01*
X003033Y006909D01*
X003283Y007159D01*
X004362Y007159D01*
X004311Y007108D01*
X004222Y007019D01*
X003728Y007019D01*
X003668Y007079D01*
X003559Y007124D01*
X003442Y007124D01*
X003334Y007079D01*
X003251Y006996D01*
X003206Y006887D01*
X003206Y006770D01*
X003251Y006662D01*
X003334Y006579D01*
X003442Y006534D01*
X003559Y006534D01*
X003668Y006579D01*
X003728Y006639D01*
X004222Y006639D01*
X004379Y006639D01*
X004579Y006839D01*
X004693Y006839D01*
X004693Y006646D01*
X004695Y006645D01*
X004693Y006644D01*
X004693Y006390D01*
X004695Y006389D01*
X004693Y006388D01*
X004693Y006176D01*
X004626Y006109D01*
X003233Y006109D01*
X003291Y006167D01*
X003291Y006531D01*
X003033Y006789D01*
X002669Y006789D01*
X002411Y006531D01*
X002411Y006167D01*
X002469Y006109D01*
X002426Y006109D01*
X002070Y005752D01*
X002033Y005789D01*
X001669Y005789D01*
X001411Y005531D01*
X001411Y005167D01*
X001669Y004909D01*
X002011Y004909D01*
X002011Y004370D01*
X001960Y004319D01*
X001292Y004319D01*
X001041Y004570D01*
X001041Y019738D01*
X003239Y021936D01*
X003291Y022061D01*
X003291Y022196D01*
X003291Y028588D01*
X004242Y029539D01*
X018511Y029539D01*
X018511Y028470D01*
X016813Y026771D01*
X016761Y026646D01*
X016761Y026511D01*
X016761Y022436D01*
X016021Y023176D01*
X015948Y023249D01*
X015852Y023289D01*
X013952Y023289D01*
X013849Y023289D01*
X013754Y023249D01*
X012854Y022349D01*
X012780Y022276D01*
X012741Y022181D01*
X012741Y021622D01*
X012706Y021537D01*
X012706Y021420D01*
X012751Y021312D01*
X012834Y021229D01*
X012942Y021184D01*
X013059Y021184D01*
X013168Y021229D01*
X013251Y021312D01*
X013296Y021420D01*
X013296Y021537D01*
X013261Y021622D01*
X013261Y022021D01*
X014008Y022769D01*
X015693Y022769D01*
X017441Y021021D01*
X017441Y020922D01*
X017406Y020837D01*
X017406Y020720D01*
X017451Y020612D01*
X017534Y020529D01*
X017642Y020484D01*
X017759Y020484D01*
X017868Y020529D01*
X017951Y020612D01*
X017996Y020720D01*
X017996Y020837D01*
X017961Y020922D01*
X017961Y021077D01*
X017961Y021138D01*
X019658Y019441D01*
X019783Y019389D01*
X019918Y019389D01*
X021583Y019389D01*
X022268Y019389D01*
X022393Y019441D01*
X022489Y019536D01*
X022541Y019661D01*
X022541Y019796D01*
X022489Y019921D01*
X022393Y020017D01*
X022268Y020069D01*
X021583Y020069D01*
X019992Y020069D01*
X017441Y022620D01*
X017441Y026438D01*
X019043Y028041D01*
X019139Y028136D01*
X019191Y028261D01*
X019191Y029711D01*
X019191Y029846D01*
X019139Y029971D01*
X019039Y030071D01*
X018943Y030167D01*
X018818Y030219D01*
X004168Y030219D01*
X004033Y030219D01*
X003908Y030167D01*
X002758Y029017D01*
X002663Y028921D01*
X002611Y028796D01*
X002611Y022270D01*
X000551Y020210D01*
X000551Y030379D01*
X000601Y030729D01*
X033201Y030729D01*
X033201Y011429D01*
X028891Y011429D01*
X028891Y012208D01*
X028779Y012319D01*
X027379Y013719D01*
X027328Y013719D01*
X027268Y013779D01*
X027159Y013824D01*
X027042Y013824D01*
X026934Y013779D01*
X026851Y013696D01*
X026806Y013587D01*
X026806Y013470D01*
X026851Y013362D01*
X026934Y013279D01*
X027042Y013234D01*
X027159Y013234D01*
X027268Y013279D01*
X027275Y013286D01*
X028511Y012050D01*
X028511Y011429D01*
X027601Y011429D01*
X027592Y011684D02*
X027709Y011684D01*
X027818Y011729D01*
X027901Y011812D01*
X027946Y011920D01*
X027946Y012037D01*
X027901Y012146D01*
X027818Y012229D01*
X027709Y012274D01*
X027691Y012274D01*
X027691Y012350D01*
X027691Y012508D01*
X027494Y012705D01*
X027501Y012712D01*
X027546Y012820D01*
X027546Y012937D01*
X027501Y013046D01*
X027418Y013129D01*
X027309Y013174D01*
X027192Y013174D01*
X027084Y013129D01*
X027001Y013046D01*
X026956Y012937D01*
X026956Y012820D01*
X027001Y012712D01*
X027061Y012652D01*
X027061Y012600D01*
X027311Y012350D01*
X027311Y012208D01*
X027311Y012050D01*
X027356Y012005D01*
X027356Y011920D01*
X027401Y011812D01*
X027484Y011729D01*
X027592Y011684D01*
X027461Y011751D02*
X023151Y011751D01*
X023151Y011593D02*
X028511Y011593D01*
X028511Y011751D02*
X027840Y011751D01*
X027941Y011910D02*
X028511Y011910D01*
X028493Y012068D02*
X027933Y012068D01*
X027820Y012227D02*
X028334Y012227D01*
X028175Y012385D02*
X027691Y012385D01*
X027654Y012544D02*
X028017Y012544D01*
X027858Y012702D02*
X027496Y012702D01*
X027546Y012861D02*
X027700Y012861D01*
X027541Y013020D02*
X027512Y013020D01*
X027383Y013178D02*
X022952Y013178D01*
X023134Y013020D02*
X026990Y013020D01*
X026956Y012861D02*
X023151Y012861D01*
X023151Y012702D02*
X027010Y012702D01*
X027117Y012544D02*
X023151Y012544D01*
X023151Y012385D02*
X027275Y012385D01*
X027311Y012227D02*
X023151Y012227D01*
X023151Y012068D02*
X027311Y012068D01*
X027360Y011910D02*
X023151Y011910D01*
X023151Y011434D02*
X028511Y011434D01*
X028891Y011434D02*
X033201Y011434D01*
X033201Y011593D02*
X028891Y011593D01*
X028891Y011751D02*
X033201Y011751D01*
X033201Y011910D02*
X028891Y011910D01*
X028891Y012068D02*
X033201Y012068D01*
X033201Y012227D02*
X028871Y012227D01*
X028713Y012385D02*
X033201Y012385D01*
X033201Y012544D02*
X028554Y012544D01*
X028396Y012702D02*
X033201Y012702D01*
X033201Y012861D02*
X028237Y012861D01*
X028079Y013020D02*
X033201Y013020D01*
X033201Y013178D02*
X027920Y013178D01*
X027762Y013337D02*
X033201Y013337D01*
X033201Y013495D02*
X027603Y013495D01*
X027445Y013654D02*
X033201Y013654D01*
X033201Y013812D02*
X027187Y013812D01*
X027014Y013812D02*
X024734Y013812D01*
X024796Y013654D02*
X026833Y013654D01*
X026806Y013495D02*
X024765Y013495D01*
X024566Y013337D02*
X026876Y013337D01*
X026977Y014288D02*
X030676Y014288D01*
X030693Y014264D02*
X030753Y014204D01*
X030821Y014155D01*
X030896Y014117D01*
X030976Y014091D01*
X031059Y014078D01*
X031063Y014078D01*
X031063Y014574D01*
X031139Y014574D01*
X031139Y014650D01*
X031635Y014650D01*
X031635Y014654D01*
X031622Y014737D01*
X031596Y014817D01*
X031558Y014892D01*
X031508Y014960D01*
X031449Y015019D01*
X031381Y015069D01*
X031306Y015107D01*
X031226Y015133D01*
X031143Y015146D01*
X031139Y015146D01*
X031139Y014650D01*
X031063Y014650D01*
X031063Y015146D01*
X031059Y015146D01*
X030976Y015133D01*
X030896Y015107D01*
X030821Y015069D01*
X030753Y015019D01*
X030693Y014960D01*
X030644Y014892D01*
X030606Y014817D01*
X030580Y014737D01*
X030566Y014654D01*
X030566Y014650D01*
X031062Y014650D01*
X031062Y014574D01*
X030566Y014574D01*
X030566Y014570D01*
X030580Y014487D01*
X030606Y014407D01*
X030644Y014332D01*
X030693Y014264D01*
X030593Y014446D02*
X027086Y014446D01*
X027089Y014605D02*
X031062Y014605D01*
X031139Y014605D02*
X033201Y014605D01*
X033201Y014764D02*
X031613Y014764D01*
X031536Y014922D02*
X033201Y014922D01*
X033201Y015081D02*
X031358Y015081D01*
X031139Y015081D02*
X031063Y015081D01*
X031063Y014922D02*
X031139Y014922D01*
X031139Y014764D02*
X031063Y014764D01*
X031139Y014574D02*
X031635Y014574D01*
X031635Y014570D01*
X031622Y014487D01*
X031596Y014407D01*
X031558Y014332D01*
X031508Y014264D01*
X031449Y014204D01*
X031381Y014155D01*
X031306Y014117D01*
X031226Y014091D01*
X031143Y014078D01*
X031139Y014078D01*
X031139Y014574D01*
X031139Y014446D02*
X031063Y014446D01*
X031063Y014288D02*
X031139Y014288D01*
X031139Y014129D02*
X031063Y014129D01*
X030871Y014129D02*
X009720Y014129D01*
X009561Y013971D02*
X033201Y013971D01*
X033201Y014129D02*
X031331Y014129D01*
X031526Y014288D02*
X033201Y014288D01*
X033201Y014446D02*
X031609Y014446D01*
X030844Y015081D02*
X008118Y015081D01*
X008191Y014922D02*
X030666Y014922D01*
X030588Y014764D02*
X026983Y014764D01*
X026618Y014764D02*
X008191Y014764D01*
X008191Y014605D02*
X009658Y014605D01*
X009500Y014446D02*
X008191Y014446D01*
X008191Y014288D02*
X009341Y014288D01*
X009183Y014129D02*
X008191Y014129D01*
X008191Y013971D02*
X009024Y013971D01*
X008866Y013812D02*
X008191Y013812D01*
X008191Y013654D02*
X008707Y013654D01*
X008549Y013495D02*
X008191Y013495D01*
X008191Y013337D02*
X008390Y013337D01*
X008231Y013178D02*
X008191Y013178D01*
X008769Y013178D02*
X019049Y013178D01*
X022040Y013337D02*
X008927Y013337D01*
X009086Y013495D02*
X022199Y013495D01*
X022357Y013654D02*
X009244Y013654D01*
X009403Y013812D02*
X022516Y013812D01*
X022577Y013337D02*
X024435Y013337D01*
X026624Y014288D02*
X009879Y014288D01*
X007959Y015239D02*
X033201Y015239D01*
X033201Y015398D02*
X007801Y015398D01*
X007642Y015556D02*
X030856Y015556D01*
X030821Y015571D02*
X031002Y015496D01*
X031199Y015496D01*
X031381Y015571D01*
X031520Y015710D01*
X031595Y015891D01*
X031595Y016088D01*
X031520Y016270D01*
X031381Y016409D01*
X031199Y016484D01*
X031002Y016484D01*
X030821Y016409D01*
X030682Y016270D01*
X030606Y016088D01*
X030606Y015891D01*
X030682Y015710D01*
X030821Y015571D01*
X030680Y015715D02*
X007483Y015715D01*
X007325Y015873D02*
X030614Y015873D01*
X030606Y016032D02*
X007166Y016032D01*
X007008Y016190D02*
X030649Y016190D01*
X030761Y016349D02*
X006941Y016349D01*
X006941Y016508D02*
X033201Y016508D01*
X033201Y016666D02*
X006941Y016666D01*
X006941Y016825D02*
X033201Y016825D01*
X033201Y016983D02*
X031415Y016983D01*
X031381Y016949D02*
X031520Y017088D01*
X031595Y017269D01*
X031595Y017466D01*
X031520Y017648D01*
X031381Y017787D01*
X031199Y017862D01*
X031002Y017862D01*
X030821Y017787D01*
X030682Y017648D01*
X030606Y017466D01*
X030606Y017269D01*
X030682Y017088D01*
X030821Y016949D01*
X031002Y016873D01*
X031199Y016873D01*
X031381Y016949D01*
X031542Y017142D02*
X033201Y017142D01*
X033201Y017300D02*
X031595Y017300D01*
X031595Y017459D02*
X033201Y017459D01*
X033201Y017617D02*
X031532Y017617D01*
X031392Y017776D02*
X033201Y017776D01*
X033201Y017934D02*
X026764Y017934D01*
X026629Y018069D02*
X027079Y017619D01*
X027774Y017619D01*
X027834Y017679D01*
X027942Y017724D01*
X028059Y017724D01*
X028168Y017679D01*
X028251Y017596D01*
X028296Y017487D01*
X028296Y017370D01*
X028251Y017262D01*
X028168Y017179D01*
X028059Y017134D01*
X027942Y017134D01*
X027834Y017179D01*
X027774Y017239D01*
X026922Y017239D01*
X026811Y017350D01*
X026472Y017689D01*
X025178Y017689D01*
X025118Y017629D01*
X025009Y017584D01*
X024892Y017584D01*
X024784Y017629D01*
X024701Y017712D01*
X024656Y017820D01*
X024656Y017937D01*
X024701Y018046D01*
X024784Y018129D01*
X024892Y018174D01*
X025009Y018174D01*
X025118Y018129D01*
X025178Y018069D01*
X026472Y018069D01*
X026629Y018069D01*
X026922Y017776D02*
X030810Y017776D01*
X030669Y017617D02*
X028229Y017617D01*
X028296Y017459D02*
X030606Y017459D01*
X030606Y017300D02*
X028267Y017300D01*
X028078Y017142D02*
X030659Y017142D01*
X030786Y016983D02*
X017460Y016983D01*
X017496Y017142D02*
X027923Y017142D01*
X026861Y017300D02*
X017446Y017300D01*
X017139Y017459D02*
X026702Y017459D01*
X026544Y017617D02*
X025090Y017617D01*
X024811Y017617D02*
X016981Y017617D01*
X016822Y017776D02*
X024674Y017776D01*
X024656Y017934D02*
X021424Y017934D01*
X021428Y017939D02*
X024422Y017939D01*
X024579Y017939D01*
X024829Y018189D01*
X028272Y018189D01*
X028429Y018189D01*
X028929Y018689D01*
X029041Y018800D01*
X029041Y021534D01*
X029059Y021534D01*
X029168Y021579D01*
X029251Y021662D01*
X029296Y021770D01*
X029296Y021887D01*
X029251Y021996D01*
X029168Y022079D01*
X029059Y022124D01*
X028942Y022124D01*
X028834Y022079D01*
X028751Y021996D01*
X028706Y021887D01*
X028706Y021803D01*
X028661Y021758D01*
X028661Y021600D01*
X028661Y018958D01*
X028272Y018569D01*
X024672Y018569D01*
X024561Y018458D01*
X024422Y018319D01*
X021428Y018319D01*
X021368Y018379D01*
X021259Y018424D01*
X021142Y018424D01*
X021034Y018379D01*
X020951Y018296D01*
X020906Y018187D01*
X020906Y018070D01*
X020951Y017962D01*
X021034Y017879D01*
X021142Y017834D01*
X021259Y017834D01*
X021368Y017879D01*
X021428Y017939D01*
X020978Y017934D02*
X016664Y017934D01*
X016505Y018093D02*
X020906Y018093D01*
X020932Y018251D02*
X016347Y018251D01*
X016188Y018410D02*
X021109Y018410D01*
X021293Y018410D02*
X024513Y018410D01*
X024672Y018569D02*
X016030Y018569D01*
X015871Y018727D02*
X028430Y018727D01*
X028589Y018886D02*
X015713Y018886D01*
X015554Y019044D02*
X028661Y019044D01*
X028661Y019203D02*
X015396Y019203D01*
X015237Y019361D02*
X028661Y019361D01*
X028661Y019520D02*
X022473Y019520D01*
X022541Y019678D02*
X028661Y019678D01*
X028661Y019837D02*
X022524Y019837D01*
X022415Y019995D02*
X028661Y019995D01*
X028661Y020154D02*
X019906Y020154D01*
X019748Y020313D02*
X028661Y020313D01*
X028661Y020471D02*
X019589Y020471D01*
X019431Y020630D02*
X028661Y020630D01*
X028661Y020788D02*
X019272Y020788D01*
X019114Y020947D02*
X028661Y020947D01*
X028661Y021105D02*
X018955Y021105D01*
X018797Y021264D02*
X023023Y021264D01*
X023083Y021239D02*
X025468Y021239D01*
X025593Y021291D01*
X025689Y021386D01*
X025741Y021511D01*
X025741Y021646D01*
X025689Y021771D01*
X025593Y021867D01*
X025468Y021919D01*
X023083Y021919D01*
X022958Y021867D01*
X022863Y021771D01*
X022811Y021646D01*
X022811Y021511D01*
X022863Y021386D01*
X022958Y021291D01*
X023083Y021239D01*
X022848Y021422D02*
X018638Y021422D01*
X018479Y021581D02*
X022811Y021581D01*
X022849Y021739D02*
X018321Y021739D01*
X018162Y021898D02*
X023033Y021898D01*
X025519Y021898D02*
X028710Y021898D01*
X028661Y021739D02*
X025702Y021739D01*
X025741Y021581D02*
X028661Y021581D01*
X028661Y021422D02*
X025704Y021422D01*
X025529Y021264D02*
X028661Y021264D01*
X029041Y021264D02*
X030776Y021264D01*
X030821Y021309D02*
X030682Y021170D01*
X030606Y020988D01*
X030606Y020791D01*
X030682Y020610D01*
X030821Y020471D01*
X031002Y020396D01*
X031199Y020396D01*
X031381Y020471D01*
X033201Y020471D01*
X033201Y020313D02*
X029041Y020313D01*
X029041Y020471D02*
X030820Y020471D01*
X030673Y020630D02*
X029041Y020630D01*
X029041Y020788D02*
X030608Y020788D01*
X030606Y020947D02*
X029041Y020947D01*
X029041Y021105D02*
X030655Y021105D01*
X030821Y021309D02*
X031002Y021384D01*
X031199Y021384D01*
X031381Y021309D01*
X031520Y021170D01*
X031595Y020988D01*
X031595Y020791D01*
X031520Y020610D01*
X031381Y020471D01*
X031528Y020630D02*
X033201Y020630D01*
X033201Y020788D02*
X031594Y020788D01*
X031595Y020947D02*
X033201Y020947D01*
X033201Y021105D02*
X031547Y021105D01*
X031426Y021264D02*
X033201Y021264D01*
X033201Y021422D02*
X029041Y021422D01*
X029170Y021581D02*
X033201Y021581D01*
X033201Y021739D02*
X029283Y021739D01*
X029291Y021898D02*
X030771Y021898D01*
X030821Y021849D02*
X030682Y021988D01*
X030606Y022169D01*
X030606Y022366D01*
X030682Y022548D01*
X030821Y022687D01*
X031002Y022762D01*
X031199Y022762D01*
X031259Y022737D01*
X032181Y023659D01*
X032181Y026738D01*
X031810Y027109D01*
X031591Y027109D01*
X031520Y026938D01*
X031381Y026799D01*
X031199Y026723D01*
X031002Y026723D01*
X030821Y026799D01*
X030682Y026938D01*
X030657Y026998D01*
X028481Y026998D01*
X027021Y025538D01*
X026892Y025409D01*
X025192Y025409D01*
X025010Y025409D01*
X023260Y027159D01*
X020842Y027159D01*
X020660Y027159D01*
X020135Y027684D01*
X020092Y027684D01*
X019984Y027729D01*
X019901Y027812D01*
X019856Y027920D01*
X019856Y028037D01*
X019901Y028146D01*
X019984Y028229D01*
X020092Y028274D01*
X020209Y028274D01*
X020318Y028229D01*
X020401Y028146D01*
X020446Y028037D01*
X020446Y027995D01*
X020842Y027599D01*
X023442Y027599D01*
X023571Y027470D01*
X025192Y025849D01*
X026710Y025849D01*
X028136Y027276D01*
X028121Y027266D01*
X028023Y027219D01*
X027920Y027183D01*
X027814Y027158D01*
X027731Y027149D01*
X027731Y028036D01*
X027571Y028036D01*
X027571Y027149D01*
X027488Y027158D01*
X027382Y027183D01*
X027279Y027219D01*
X027181Y027266D01*
X027089Y027324D01*
X027004Y027392D01*
X026927Y027469D01*
X026859Y027554D01*
X026801Y027646D01*
X026754Y027744D01*
X026718Y027847D01*
X026693Y027953D01*
X026684Y028036D01*
X027571Y028036D01*
X027571Y028196D01*
X026684Y028196D01*
X026693Y028279D01*
X026718Y028385D01*
X026754Y028488D01*
X026801Y028586D01*
X026859Y028678D01*
X026927Y028764D01*
X027004Y028841D01*
X027089Y028909D01*
X027181Y028966D01*
X027279Y029014D01*
X027382Y029050D01*
X027488Y029074D01*
X027571Y029083D01*
X027571Y028196D01*
X027731Y028196D01*
X028618Y028196D01*
X028609Y028279D01*
X028585Y028385D01*
X028549Y028488D01*
X028501Y028586D01*
X028444Y028678D01*
X028376Y028764D01*
X028299Y028841D01*
X028213Y028909D01*
X028121Y028966D01*
X028023Y029014D01*
X027920Y029050D01*
X027814Y029074D01*
X027731Y029083D01*
X027731Y028196D01*
X027731Y028036D01*
X028618Y028036D01*
X028609Y027953D01*
X028585Y027847D01*
X028549Y027744D01*
X028501Y027646D01*
X028444Y027554D01*
X028376Y027469D01*
X028344Y027438D01*
X028481Y027438D01*
X030657Y027438D01*
X030682Y027498D01*
X030821Y027637D01*
X031002Y027712D01*
X031199Y027712D01*
X031381Y027637D01*
X031469Y027549D01*
X031992Y027549D01*
X032121Y027420D01*
X032621Y026920D01*
X032621Y026738D01*
X032621Y023427D01*
X032492Y023298D01*
X032442Y023298D01*
X031570Y022426D01*
X031595Y022366D01*
X031595Y022169D01*
X031520Y021988D01*
X031381Y021849D01*
X031199Y021773D01*
X031002Y021773D01*
X030821Y021849D01*
X030653Y022057D02*
X029190Y022057D01*
X028811Y022057D02*
X018004Y022057D01*
X017845Y022215D02*
X030606Y022215D01*
X030610Y022374D02*
X019463Y022374D01*
X019501Y022412D02*
X019418Y022329D01*
X019309Y022284D01*
X019192Y022284D01*
X019084Y022329D01*
X019001Y022412D01*
X018956Y022520D01*
X018956Y022637D01*
X019001Y022746D01*
X019051Y022796D01*
X019051Y023496D01*
X019051Y023662D01*
X019301Y023912D01*
X019301Y023912D01*
X019256Y024020D01*
X019256Y024137D01*
X019301Y024246D01*
X019384Y024329D01*
X019492Y024374D01*
X019609Y024374D01*
X019718Y024329D01*
X019801Y024246D01*
X019846Y024137D01*
X019846Y024067D01*
X019851Y024062D01*
X019851Y023896D01*
X019734Y023779D01*
X019451Y023496D01*
X019451Y022796D01*
X019501Y022746D01*
X019546Y022637D01*
X019546Y022520D01*
X019501Y022412D01*
X019546Y022532D02*
X030675Y022532D01*
X030830Y022691D02*
X019524Y022691D01*
X019451Y022849D02*
X031371Y022849D01*
X031530Y023008D02*
X019451Y023008D01*
X019451Y023166D02*
X031688Y023166D01*
X031847Y023325D02*
X019451Y023325D01*
X019451Y023483D02*
X032005Y023483D01*
X032164Y023642D02*
X019597Y023642D01*
X019755Y023801D02*
X032181Y023801D01*
X032181Y023959D02*
X031282Y023959D01*
X031306Y023967D02*
X031381Y024005D01*
X031449Y024054D01*
X031508Y024114D01*
X031558Y024182D01*
X031596Y024257D01*
X031622Y024337D01*
X031635Y024420D01*
X031635Y024424D01*
X031139Y024424D01*
X031139Y024500D01*
X031635Y024500D01*
X031635Y024504D01*
X031622Y024587D01*
X031596Y024667D01*
X031558Y024742D01*
X031508Y024810D01*
X031449Y024869D01*
X031381Y024919D01*
X031306Y024957D01*
X031226Y024983D01*
X031143Y024996D01*
X031139Y024996D01*
X031139Y024500D01*
X031063Y024500D01*
X031063Y024996D01*
X031059Y024996D01*
X030976Y024983D01*
X030896Y024957D01*
X030821Y024919D01*
X030753Y024869D01*
X030693Y024810D01*
X030644Y024742D01*
X030606Y024667D01*
X030580Y024587D01*
X030566Y024504D01*
X030566Y024500D01*
X031062Y024500D01*
X031062Y024424D01*
X030566Y024424D01*
X030566Y024420D01*
X030580Y024337D01*
X030606Y024257D01*
X030644Y024182D01*
X030693Y024114D01*
X030753Y024054D01*
X030821Y024005D01*
X030896Y023967D01*
X030976Y023941D01*
X031059Y023928D01*
X031063Y023928D01*
X031063Y024424D01*
X031139Y024424D01*
X031139Y023928D01*
X031143Y023928D01*
X031226Y023941D01*
X031306Y023967D01*
X031139Y023959D02*
X031063Y023959D01*
X030919Y023959D02*
X019851Y023959D01*
X019846Y024118D02*
X030690Y024118D01*
X030599Y024276D02*
X019771Y024276D01*
X019331Y024276D02*
X017441Y024276D01*
X017441Y024118D02*
X019256Y024118D01*
X019281Y023959D02*
X017441Y023959D01*
X017441Y023801D02*
X019190Y023801D01*
X019051Y023642D02*
X017441Y023642D01*
X017441Y023483D02*
X019051Y023483D01*
X019051Y023325D02*
X017441Y023325D01*
X017441Y023166D02*
X019051Y023166D01*
X019051Y023008D02*
X017441Y023008D01*
X017441Y022849D02*
X019051Y022849D01*
X018978Y022691D02*
X017441Y022691D01*
X017528Y022532D02*
X018956Y022532D01*
X019039Y022374D02*
X017687Y022374D01*
X017040Y021422D02*
X013296Y021422D01*
X013278Y021581D02*
X016881Y021581D01*
X016722Y021739D02*
X013261Y021739D01*
X013261Y021898D02*
X016564Y021898D01*
X016405Y022057D02*
X013296Y022057D01*
X013455Y022215D02*
X016247Y022215D01*
X016088Y022374D02*
X013613Y022374D01*
X013772Y022532D02*
X015930Y022532D01*
X015771Y022691D02*
X013930Y022691D01*
X013512Y023008D02*
X007639Y023008D01*
X007696Y022849D02*
X013354Y022849D01*
X013195Y022691D02*
X007808Y022691D01*
X007966Y022532D02*
X013036Y022532D01*
X012878Y022374D02*
X008310Y022374D01*
X008192Y022374D02*
X008125Y022374D01*
X007904Y022057D02*
X006897Y022057D01*
X007056Y022215D02*
X007746Y022215D01*
X007587Y022374D02*
X007214Y022374D01*
X007291Y022532D02*
X007429Y022532D01*
X006911Y022691D02*
X006484Y022691D01*
X006491Y022849D02*
X006812Y022849D01*
X006653Y023008D02*
X006389Y023008D01*
X006495Y023166D02*
X005407Y023166D01*
X005248Y023008D02*
X006013Y023008D01*
X005911Y022849D02*
X005090Y022849D01*
X004996Y022691D02*
X005918Y022691D01*
X006011Y022532D02*
X004921Y022532D01*
X004604Y023008D02*
X003291Y023008D01*
X003291Y023166D02*
X004870Y023166D01*
X005028Y023325D02*
X003291Y023325D01*
X003291Y023483D02*
X005187Y023483D01*
X004431Y022849D02*
X003291Y022849D01*
X003291Y022691D02*
X004406Y022691D01*
X004480Y022532D02*
X003291Y022532D01*
X003291Y022374D02*
X006011Y022374D01*
X006011Y022215D02*
X003291Y022215D01*
X003289Y022057D02*
X006011Y022057D01*
X006011Y021898D02*
X003201Y021898D01*
X003042Y021739D02*
X006011Y021739D01*
X006011Y021581D02*
X002884Y021581D01*
X002725Y021422D02*
X006011Y021422D01*
X006011Y021264D02*
X002933Y021264D01*
X002918Y021279D02*
X002809Y021324D01*
X002692Y021324D01*
X002584Y021279D01*
X002501Y021196D01*
X002456Y021087D01*
X002456Y020970D01*
X002501Y020862D01*
X002571Y020792D01*
X002571Y020767D01*
X002561Y020758D01*
X002561Y019458D01*
X002161Y019058D01*
X002161Y018900D01*
X002161Y018718D01*
X002050Y018829D01*
X001871Y018829D01*
X001871Y018369D01*
X001831Y018369D01*
X001831Y018829D01*
X001652Y018829D01*
X001371Y018548D01*
X001371Y018369D01*
X001831Y018369D01*
X001831Y018329D01*
X001371Y018329D01*
X001371Y018150D01*
X001652Y017869D01*
X001831Y017869D01*
X001831Y018329D01*
X001871Y018329D01*
X001871Y017869D01*
X002050Y017869D01*
X002161Y017980D01*
X002161Y017661D01*
X002033Y017789D01*
X001669Y017789D01*
X001411Y017531D01*
X001411Y017167D01*
X001669Y016909D01*
X002033Y016909D01*
X002161Y017037D01*
X002161Y016770D01*
X002272Y016659D01*
X002411Y016520D01*
X002411Y016167D01*
X002669Y015909D01*
X003033Y015909D01*
X003291Y016167D01*
X003291Y016531D01*
X003033Y016789D01*
X002679Y016789D01*
X002541Y016928D01*
X002541Y017037D01*
X002669Y016909D01*
X003033Y016909D01*
X003291Y017167D01*
X003291Y017531D01*
X003033Y017789D01*
X002669Y017789D01*
X002541Y017661D01*
X002541Y017980D01*
X002652Y017869D01*
X002831Y017869D01*
X002831Y018329D01*
X002871Y018329D01*
X002871Y018369D01*
X002831Y018369D01*
X002831Y018829D01*
X002652Y018829D01*
X002541Y018718D01*
X002541Y018900D01*
X002941Y019300D01*
X002941Y019458D01*
X002941Y020758D01*
X002931Y020767D01*
X002931Y020792D01*
X003001Y020862D01*
X003046Y020970D01*
X003046Y021087D01*
X003001Y021196D01*
X002918Y021279D01*
X003038Y021105D02*
X006011Y021105D01*
X006011Y020947D02*
X003036Y020947D01*
X002931Y020788D02*
X006011Y020788D01*
X006011Y020630D02*
X002941Y020630D01*
X002941Y020471D02*
X006011Y020471D01*
X006011Y020313D02*
X002941Y020313D01*
X002941Y020154D02*
X006011Y020154D01*
X006011Y019995D02*
X002941Y019995D01*
X002941Y019837D02*
X006011Y019837D01*
X006082Y019678D02*
X002941Y019678D01*
X002941Y019520D02*
X006241Y019520D01*
X006361Y019361D02*
X002941Y019361D01*
X002843Y019203D02*
X006361Y019203D01*
X006361Y019044D02*
X002685Y019044D01*
X002541Y018886D02*
X006361Y018886D01*
X006361Y018727D02*
X003151Y018727D01*
X003050Y018829D02*
X003331Y018548D01*
X003331Y018369D01*
X002871Y018369D01*
X002871Y018829D01*
X003050Y018829D01*
X002871Y018727D02*
X002831Y018727D01*
X002831Y018569D02*
X002871Y018569D01*
X002871Y018410D02*
X002831Y018410D01*
X002871Y018329D02*
X003331Y018329D01*
X003331Y018150D01*
X003050Y017869D01*
X002871Y017869D01*
X002871Y018329D01*
X002871Y018251D02*
X002831Y018251D01*
X002831Y018093D02*
X002871Y018093D01*
X002871Y017934D02*
X002831Y017934D01*
X002656Y017776D02*
X002541Y017776D01*
X002541Y017934D02*
X002586Y017934D01*
X002161Y017934D02*
X002115Y017934D01*
X002161Y017776D02*
X002046Y017776D01*
X001871Y017934D02*
X001831Y017934D01*
X001831Y018093D02*
X001871Y018093D01*
X001871Y018251D02*
X001831Y018251D01*
X001831Y018410D02*
X001871Y018410D01*
X001871Y018569D02*
X001831Y018569D01*
X001831Y018727D02*
X001871Y018727D01*
X002151Y018727D02*
X002161Y018727D01*
X002161Y018886D02*
X001041Y018886D01*
X001041Y019044D02*
X002161Y019044D01*
X002306Y019203D02*
X001041Y019203D01*
X001041Y019361D02*
X002465Y019361D01*
X002561Y019520D02*
X001041Y019520D01*
X001041Y019678D02*
X002561Y019678D01*
X002561Y019837D02*
X001140Y019837D01*
X001298Y019995D02*
X002561Y019995D01*
X002561Y020154D02*
X001457Y020154D01*
X001615Y020313D02*
X002561Y020313D01*
X002561Y020471D02*
X001774Y020471D01*
X001932Y020630D02*
X002561Y020630D01*
X002571Y020788D02*
X002091Y020788D01*
X002249Y020947D02*
X002465Y020947D01*
X002463Y021105D02*
X002408Y021105D01*
X002567Y021264D02*
X002569Y021264D01*
X002081Y021739D02*
X000551Y021739D01*
X000551Y021581D02*
X001922Y021581D01*
X001764Y021422D02*
X000551Y021422D01*
X000551Y021264D02*
X001605Y021264D01*
X001446Y021105D02*
X000551Y021105D01*
X000551Y020947D02*
X001288Y020947D01*
X001129Y020788D02*
X000551Y020788D01*
X000551Y020630D02*
X000971Y020630D01*
X000812Y020471D02*
X000551Y020471D01*
X000551Y020313D02*
X000654Y020313D01*
X000551Y021898D02*
X002239Y021898D01*
X002398Y022057D02*
X000551Y022057D01*
X000551Y022215D02*
X002556Y022215D01*
X002611Y022374D02*
X000551Y022374D01*
X000551Y022532D02*
X002611Y022532D01*
X002611Y022691D02*
X000551Y022691D01*
X000551Y022849D02*
X002611Y022849D01*
X002611Y023008D02*
X000551Y023008D01*
X000551Y023166D02*
X002611Y023166D01*
X002611Y023325D02*
X000551Y023325D01*
X000551Y023483D02*
X002611Y023483D01*
X002611Y023642D02*
X000551Y023642D01*
X000551Y023801D02*
X002611Y023801D01*
X002611Y023959D02*
X000551Y023959D01*
X000551Y024118D02*
X002611Y024118D01*
X002611Y024276D02*
X000551Y024276D01*
X000551Y024435D02*
X002611Y024435D01*
X002611Y024593D02*
X000551Y024593D01*
X000551Y024752D02*
X002611Y024752D01*
X002611Y024910D02*
X000551Y024910D01*
X000551Y025069D02*
X002611Y025069D01*
X002611Y025227D02*
X000551Y025227D01*
X000551Y025386D02*
X002611Y025386D01*
X002611Y025544D02*
X000551Y025544D01*
X000551Y025703D02*
X002611Y025703D01*
X002611Y025862D02*
X000551Y025862D01*
X000551Y026020D02*
X002611Y026020D01*
X002611Y026179D02*
X000551Y026179D01*
X000551Y026337D02*
X002611Y026337D01*
X002611Y026496D02*
X000551Y026496D01*
X000551Y026654D02*
X002611Y026654D01*
X002611Y026813D02*
X000551Y026813D01*
X000551Y026971D02*
X002611Y026971D01*
X002611Y027130D02*
X000551Y027130D01*
X000551Y027288D02*
X002611Y027288D01*
X002611Y027447D02*
X000551Y027447D01*
X000551Y027606D02*
X002611Y027606D01*
X002611Y027764D02*
X000551Y027764D01*
X000551Y027923D02*
X002611Y027923D01*
X002611Y028081D02*
X000551Y028081D01*
X000551Y028240D02*
X002611Y028240D01*
X002611Y028398D02*
X000551Y028398D01*
X000551Y028557D02*
X002611Y028557D01*
X002611Y028715D02*
X000551Y028715D01*
X000551Y028874D02*
X001124Y028874D01*
X001102Y028883D02*
X001426Y028749D01*
X001776Y028749D01*
X002099Y028883D01*
X002347Y029130D01*
X002481Y029454D01*
X002481Y029804D01*
X002347Y030127D01*
X002099Y030375D01*
X001776Y030509D01*
X001426Y030509D01*
X001102Y030375D01*
X000855Y030127D01*
X000721Y029804D01*
X000721Y029454D01*
X000855Y029130D01*
X001102Y028883D01*
X000953Y029032D02*
X000551Y029032D01*
X000551Y029191D02*
X000830Y029191D01*
X000764Y029350D02*
X000551Y029350D01*
X000551Y029508D02*
X000721Y029508D01*
X000721Y029667D02*
X000551Y029667D01*
X000551Y029825D02*
X000730Y029825D01*
X000795Y029984D02*
X000551Y029984D01*
X000551Y030142D02*
X000870Y030142D01*
X001028Y030301D02*
X000551Y030301D01*
X000562Y030459D02*
X001306Y030459D01*
X001895Y030459D02*
X029306Y030459D01*
X029426Y030509D02*
X029102Y030375D01*
X028855Y030127D01*
X028721Y029804D01*
X028721Y029454D01*
X028855Y029130D01*
X029102Y028883D01*
X029426Y028749D01*
X029776Y028749D01*
X030099Y028883D01*
X030347Y029130D01*
X030481Y029454D01*
X030481Y029804D01*
X030347Y030127D01*
X030099Y030375D01*
X029776Y030509D01*
X029426Y030509D01*
X029028Y030301D02*
X002173Y030301D01*
X002332Y030142D02*
X003883Y030142D01*
X003725Y029984D02*
X002406Y029984D01*
X002472Y029825D02*
X003566Y029825D01*
X003408Y029667D02*
X002481Y029667D01*
X002481Y029508D02*
X003249Y029508D01*
X003091Y029350D02*
X002438Y029350D01*
X002372Y029191D02*
X002932Y029191D01*
X002774Y029032D02*
X002249Y029032D01*
X002078Y028874D02*
X002643Y028874D01*
X003291Y028557D02*
X004882Y028557D01*
X004877Y028587D02*
X004891Y028504D01*
X004917Y028424D01*
X004955Y028349D01*
X005004Y028281D01*
X005064Y028221D01*
X005132Y028172D01*
X005207Y028134D01*
X005287Y028108D01*
X005370Y028094D01*
X005374Y028094D01*
X005374Y028590D01*
X005450Y028590D01*
X005450Y028094D01*
X005454Y028094D01*
X005537Y028108D01*
X005617Y028134D01*
X005692Y028172D01*
X005760Y028221D01*
X005819Y028281D01*
X005869Y028349D01*
X005907Y028424D01*
X005933Y028504D01*
X005946Y028587D01*
X005946Y028591D01*
X005450Y028591D01*
X005450Y028667D01*
X005946Y028667D01*
X005946Y028671D01*
X005933Y028754D01*
X005907Y028834D01*
X005869Y028909D01*
X005819Y028977D01*
X005760Y029036D01*
X005692Y029086D01*
X005617Y029124D01*
X005537Y029150D01*
X005454Y029163D01*
X005450Y029163D01*
X005450Y028667D01*
X005374Y028667D01*
X005374Y029163D01*
X005370Y029163D01*
X005287Y029150D01*
X005207Y029124D01*
X005132Y029086D01*
X005064Y029036D01*
X005004Y028977D01*
X004955Y028909D01*
X004917Y028834D01*
X004891Y028754D01*
X004877Y028671D01*
X004877Y028667D01*
X005373Y028667D01*
X005373Y028591D01*
X004877Y028591D01*
X004877Y028587D01*
X004885Y028715D02*
X003418Y028715D01*
X003577Y028874D02*
X004937Y028874D01*
X005060Y029032D02*
X003735Y029032D01*
X003894Y029191D02*
X018511Y029191D01*
X018511Y029032D02*
X018185Y029032D01*
X018170Y029048D02*
X017988Y029123D01*
X017791Y029123D01*
X017610Y029048D01*
X017471Y028909D01*
X017395Y028727D01*
X017395Y028530D01*
X017471Y028349D01*
X017610Y028210D01*
X017791Y028134D01*
X017988Y028134D01*
X018170Y028210D01*
X018309Y028349D01*
X018384Y028530D01*
X018384Y028727D01*
X018309Y028909D01*
X018170Y029048D01*
X018323Y028874D02*
X018511Y028874D01*
X018511Y028715D02*
X018384Y028715D01*
X018384Y028557D02*
X018511Y028557D01*
X018439Y028398D02*
X018329Y028398D01*
X018281Y028240D02*
X018200Y028240D01*
X018122Y028081D02*
X003291Y028081D01*
X003291Y027923D02*
X017964Y027923D01*
X017805Y027764D02*
X003291Y027764D01*
X003291Y027606D02*
X017647Y027606D01*
X017488Y027447D02*
X010750Y027447D01*
X010751Y027446D02*
X010668Y027529D01*
X010559Y027574D01*
X010442Y027574D01*
X010334Y027529D01*
X010284Y027479D01*
X008518Y027479D01*
X008468Y027529D01*
X008359Y027574D01*
X008242Y027574D01*
X008134Y027529D01*
X008051Y027446D01*
X008006Y027337D01*
X008006Y027220D01*
X008051Y027112D01*
X008134Y027029D01*
X008242Y026984D01*
X008359Y026984D01*
X008468Y027029D01*
X008518Y027079D01*
X010284Y027079D01*
X010334Y027029D01*
X010442Y026984D01*
X010559Y026984D01*
X010668Y027029D01*
X010751Y027112D01*
X010796Y027220D01*
X010796Y027337D01*
X010751Y027446D01*
X010796Y027288D02*
X017330Y027288D01*
X017171Y027130D02*
X010758Y027130D01*
X010388Y028134D02*
X010570Y028210D01*
X010709Y028349D01*
X010784Y028530D01*
X010784Y028727D01*
X010709Y028909D01*
X010570Y029048D01*
X010388Y029123D01*
X010191Y029123D01*
X010010Y029048D01*
X009871Y028909D01*
X009795Y028727D01*
X009795Y028530D01*
X009871Y028349D01*
X010010Y028210D01*
X010191Y028134D01*
X010388Y028134D01*
X010600Y028240D02*
X012545Y028240D01*
X012564Y028221D02*
X012632Y028172D01*
X012707Y028134D01*
X012787Y028108D01*
X012870Y028094D01*
X012874Y028094D01*
X012874Y028590D01*
X012950Y028590D01*
X012950Y028094D01*
X012954Y028094D01*
X013037Y028108D01*
X013117Y028134D01*
X013192Y028172D01*
X013260Y028221D01*
X013319Y028281D01*
X013369Y028349D01*
X013407Y028424D01*
X013433Y028504D01*
X013446Y028587D01*
X013446Y028591D01*
X012950Y028591D01*
X012950Y028667D01*
X013446Y028667D01*
X013446Y028671D01*
X013433Y028754D01*
X013407Y028834D01*
X013369Y028909D01*
X013319Y028977D01*
X013260Y029036D01*
X013192Y029086D01*
X013117Y029124D01*
X013037Y029150D01*
X012954Y029163D01*
X012950Y029163D01*
X012950Y028667D01*
X012874Y028667D01*
X012874Y029163D01*
X012870Y029163D01*
X012787Y029150D01*
X012707Y029124D01*
X012632Y029086D01*
X012564Y029036D01*
X012504Y028977D01*
X012455Y028909D01*
X012417Y028834D01*
X012391Y028754D01*
X012377Y028671D01*
X012377Y028667D01*
X012873Y028667D01*
X012873Y028591D01*
X012377Y028591D01*
X012377Y028587D01*
X012391Y028504D01*
X012417Y028424D01*
X012455Y028349D01*
X012504Y028281D01*
X012564Y028221D01*
X012430Y028398D02*
X010729Y028398D01*
X010784Y028557D02*
X012382Y028557D01*
X012385Y028715D02*
X010784Y028715D01*
X010723Y028874D02*
X012437Y028874D01*
X012560Y029032D02*
X010585Y029032D01*
X009994Y029032D02*
X009264Y029032D01*
X009260Y029036D02*
X009192Y029086D01*
X009117Y029124D01*
X009037Y029150D01*
X008954Y029163D01*
X008950Y029163D01*
X008950Y028667D01*
X009446Y028667D01*
X009446Y028671D01*
X009433Y028754D01*
X009407Y028834D01*
X009369Y028909D01*
X009319Y028977D01*
X009260Y029036D01*
X009387Y028874D02*
X009856Y028874D01*
X009795Y028715D02*
X009439Y028715D01*
X009446Y028591D02*
X008950Y028591D01*
X008950Y028667D01*
X008874Y028667D01*
X008874Y029163D01*
X008870Y029163D01*
X008787Y029150D01*
X008707Y029124D01*
X008632Y029086D01*
X008564Y029036D01*
X008504Y028977D01*
X008455Y028909D01*
X008417Y028834D01*
X008391Y028754D01*
X008377Y028671D01*
X008377Y028667D01*
X008873Y028667D01*
X008873Y028591D01*
X008377Y028591D01*
X008377Y028587D01*
X008391Y028504D01*
X008417Y028424D01*
X008455Y028349D01*
X008504Y028281D01*
X008564Y028221D01*
X008632Y028172D01*
X008707Y028134D01*
X008787Y028108D01*
X008870Y028094D01*
X008874Y028094D01*
X008874Y028590D01*
X008950Y028590D01*
X008950Y028094D01*
X008954Y028094D01*
X009037Y028108D01*
X009117Y028134D01*
X009192Y028172D01*
X009260Y028221D01*
X009319Y028281D01*
X009369Y028349D01*
X009407Y028424D01*
X009433Y028504D01*
X009446Y028587D01*
X009446Y028591D01*
X009441Y028557D02*
X009795Y028557D01*
X009850Y028398D02*
X009394Y028398D01*
X009278Y028240D02*
X009980Y028240D01*
X008950Y028240D02*
X008874Y028240D01*
X008874Y028398D02*
X008950Y028398D01*
X008950Y028557D02*
X008874Y028557D01*
X008874Y028715D02*
X008950Y028715D01*
X008950Y028874D02*
X008874Y028874D01*
X008874Y029032D02*
X008950Y029032D01*
X008560Y029032D02*
X007085Y029032D01*
X007070Y029048D02*
X006888Y029123D01*
X006691Y029123D01*
X006510Y029048D01*
X006371Y028909D01*
X006295Y028727D01*
X006295Y028530D01*
X006371Y028349D01*
X006510Y028210D01*
X006691Y028134D01*
X006888Y028134D01*
X007070Y028210D01*
X007209Y028349D01*
X007284Y028530D01*
X007284Y028727D01*
X007209Y028909D01*
X007070Y029048D01*
X007223Y028874D02*
X008437Y028874D01*
X008385Y028715D02*
X007284Y028715D01*
X007284Y028557D02*
X008382Y028557D01*
X008430Y028398D02*
X007229Y028398D01*
X007100Y028240D02*
X008545Y028240D01*
X008052Y027447D02*
X003291Y027447D01*
X003291Y027288D02*
X008006Y027288D01*
X008043Y027130D02*
X003291Y027130D01*
X003291Y026971D02*
X017013Y026971D01*
X016854Y026813D02*
X003291Y026813D01*
X003291Y026654D02*
X016764Y026654D01*
X016761Y026496D02*
X003291Y026496D01*
X003291Y026337D02*
X016761Y026337D01*
X016761Y026179D02*
X003291Y026179D01*
X003291Y026020D02*
X016761Y026020D01*
X016761Y025862D02*
X003291Y025862D01*
X003291Y025703D02*
X016761Y025703D01*
X016761Y025544D02*
X003291Y025544D01*
X003291Y025386D02*
X016761Y025386D01*
X016761Y025227D02*
X003291Y025227D01*
X003291Y025069D02*
X016761Y025069D01*
X016761Y024910D02*
X003291Y024910D01*
X003291Y024752D02*
X016761Y024752D01*
X016761Y024593D02*
X003291Y024593D01*
X003291Y024435D02*
X016761Y024435D01*
X016761Y024276D02*
X003291Y024276D01*
X003291Y024118D02*
X016761Y024118D01*
X016761Y023959D02*
X003291Y023959D01*
X003291Y023801D02*
X016761Y023801D01*
X016761Y023642D02*
X003291Y023642D01*
X006391Y022532D02*
X006835Y022532D01*
X006677Y022374D02*
X006391Y022374D01*
X006391Y022215D02*
X006518Y022215D01*
X006739Y021898D02*
X008014Y021898D01*
X008487Y021898D02*
X012741Y021898D01*
X012741Y022057D02*
X008546Y022057D01*
X008514Y022215D02*
X012755Y022215D01*
X012741Y021739D02*
X006591Y021739D01*
X006591Y021581D02*
X012724Y021581D01*
X012706Y021422D02*
X006591Y021422D01*
X006591Y021264D02*
X012799Y021264D01*
X013203Y021264D02*
X017198Y021264D01*
X017357Y021105D02*
X006591Y021105D01*
X006591Y020947D02*
X017441Y020947D01*
X017406Y020788D02*
X006591Y020788D01*
X006591Y020630D02*
X017443Y020630D01*
X017958Y020630D02*
X018469Y020630D01*
X018311Y020788D02*
X017996Y020788D01*
X017961Y020947D02*
X018152Y020947D01*
X017994Y021105D02*
X017961Y021105D01*
X018628Y020471D02*
X007026Y020471D01*
X007135Y020313D02*
X008117Y020313D01*
X008013Y020154D02*
X007194Y020154D01*
X007353Y019995D02*
X008016Y019995D01*
X008125Y019837D02*
X007511Y019837D01*
X007291Y019520D02*
X006941Y019520D01*
X006941Y019361D02*
X008651Y019361D01*
X009050Y019361D02*
X014400Y019361D01*
X014558Y019203D02*
X006941Y019203D01*
X006941Y019044D02*
X014717Y019044D01*
X014875Y018886D02*
X006941Y018886D01*
X006941Y018727D02*
X015034Y018727D01*
X015192Y018569D02*
X006941Y018569D01*
X006941Y018410D02*
X015351Y018410D01*
X015509Y018251D02*
X006941Y018251D01*
X006941Y018093D02*
X015561Y018093D01*
X015561Y017934D02*
X006941Y017934D01*
X006941Y017776D02*
X015585Y017776D01*
X015744Y017617D02*
X006941Y017617D01*
X006941Y017459D02*
X016004Y017459D01*
X016398Y017459D02*
X016602Y017459D01*
X016761Y017300D02*
X006941Y017300D01*
X006941Y017142D02*
X016906Y017142D01*
X016942Y016983D02*
X006941Y016983D01*
X006361Y016983D02*
X003107Y016983D01*
X003266Y017142D02*
X006361Y017142D01*
X006361Y017300D02*
X003291Y017300D01*
X003291Y017459D02*
X006361Y017459D01*
X006361Y017617D02*
X003204Y017617D01*
X003046Y017776D02*
X006361Y017776D01*
X006361Y017934D02*
X003115Y017934D01*
X003274Y018093D02*
X006361Y018093D01*
X006361Y018251D02*
X003331Y018251D01*
X003331Y018410D02*
X006361Y018410D01*
X006361Y018569D02*
X003310Y018569D01*
X002550Y018727D02*
X002541Y018727D01*
X001550Y018727D02*
X001041Y018727D01*
X001041Y018569D02*
X001392Y018569D01*
X001371Y018410D02*
X001041Y018410D01*
X001041Y018251D02*
X001371Y018251D01*
X001428Y018093D02*
X001041Y018093D01*
X001041Y017934D02*
X001586Y017934D01*
X001656Y017776D02*
X001041Y017776D01*
X001041Y017617D02*
X001497Y017617D01*
X001411Y017459D02*
X001041Y017459D01*
X001041Y017300D02*
X001411Y017300D01*
X001436Y017142D02*
X001041Y017142D01*
X001041Y016983D02*
X001594Y016983D01*
X001669Y016789D02*
X001411Y016531D01*
X001411Y016167D01*
X001669Y015909D01*
X002033Y015909D01*
X002291Y016167D01*
X002291Y016531D01*
X002033Y016789D01*
X001669Y016789D01*
X001546Y016666D02*
X001041Y016666D01*
X001041Y016508D02*
X001411Y016508D01*
X001411Y016349D02*
X001041Y016349D01*
X001041Y016190D02*
X001411Y016190D01*
X001545Y016032D02*
X001041Y016032D01*
X001041Y015873D02*
X006538Y015873D01*
X006696Y015715D02*
X003107Y015715D01*
X003033Y015789D02*
X002669Y015789D01*
X002411Y015531D01*
X002411Y015167D01*
X002669Y014909D01*
X003033Y014909D01*
X003291Y015167D01*
X003291Y015531D01*
X003033Y015789D01*
X003156Y016032D02*
X006379Y016032D01*
X006361Y016190D02*
X003291Y016190D01*
X003291Y016349D02*
X006361Y016349D01*
X006361Y016508D02*
X003291Y016508D01*
X003156Y016666D02*
X006361Y016666D01*
X006361Y016825D02*
X002644Y016825D01*
X002594Y016983D02*
X002541Y016983D01*
X002161Y016983D02*
X002107Y016983D01*
X002161Y016825D02*
X001041Y016825D01*
X002156Y016666D02*
X002265Y016666D01*
X002291Y016508D02*
X002411Y016508D01*
X002411Y016349D02*
X002291Y016349D01*
X002291Y016190D02*
X002411Y016190D01*
X002545Y016032D02*
X002156Y016032D01*
X002033Y015789D02*
X001669Y015789D01*
X001411Y015531D01*
X001411Y015167D01*
X001669Y014909D01*
X002033Y014909D01*
X002291Y015167D01*
X002291Y015531D01*
X002033Y015789D01*
X002107Y015715D02*
X002595Y015715D01*
X002436Y015556D02*
X002266Y015556D01*
X002291Y015398D02*
X002411Y015398D01*
X002411Y015239D02*
X002291Y015239D01*
X002205Y015081D02*
X002497Y015081D01*
X002655Y014922D02*
X002046Y014922D01*
X002033Y014789D02*
X001669Y014789D01*
X001411Y014531D01*
X001411Y014167D01*
X001669Y013909D01*
X002033Y013909D01*
X002291Y014167D01*
X002291Y014531D01*
X002033Y014789D01*
X002058Y014764D02*
X002643Y014764D01*
X002485Y014605D02*
X002217Y014605D01*
X002291Y014446D02*
X002411Y014446D01*
X002411Y014288D02*
X002291Y014288D01*
X002254Y014129D02*
X002448Y014129D01*
X002607Y013971D02*
X002095Y013971D01*
X002033Y013789D02*
X001669Y013789D01*
X001411Y013531D01*
X001411Y013167D01*
X001669Y012909D01*
X002033Y012909D01*
X002291Y013167D01*
X002291Y013531D01*
X002033Y013789D01*
X002168Y013654D02*
X002534Y013654D01*
X002411Y013495D02*
X002291Y013495D01*
X002291Y013337D02*
X002411Y013337D01*
X002411Y013178D02*
X002291Y013178D01*
X002144Y013020D02*
X002558Y013020D01*
X002582Y012702D02*
X002119Y012702D01*
X002033Y012789D02*
X002291Y012531D01*
X002291Y012167D01*
X002033Y011909D01*
X001669Y011909D01*
X001411Y012167D01*
X001411Y012531D01*
X001669Y012789D01*
X002033Y012789D01*
X002278Y012544D02*
X002424Y012544D01*
X002411Y012385D02*
X002291Y012385D01*
X002291Y012227D02*
X002411Y012227D01*
X002509Y012068D02*
X002192Y012068D01*
X002034Y011910D02*
X002668Y011910D01*
X002669Y011789D02*
X002411Y011531D01*
X002411Y011167D01*
X002669Y010909D01*
X003033Y010909D01*
X003291Y011167D01*
X003291Y011531D01*
X003033Y011789D01*
X002669Y011789D01*
X002631Y011751D02*
X002071Y011751D01*
X002033Y011789D02*
X001669Y011789D01*
X001411Y011531D01*
X001411Y011167D01*
X001669Y010909D01*
X002033Y010909D01*
X002291Y011167D01*
X002291Y011531D01*
X002033Y011789D01*
X002229Y011593D02*
X002472Y011593D01*
X002411Y011434D02*
X002291Y011434D01*
X002291Y011276D02*
X002411Y011276D01*
X002460Y011117D02*
X002241Y011117D01*
X002083Y010959D02*
X002619Y010959D01*
X002669Y010789D02*
X002411Y010531D01*
X002411Y010167D01*
X002669Y009909D01*
X003033Y009909D01*
X003291Y010167D01*
X003291Y010531D01*
X003033Y010789D01*
X002669Y010789D01*
X002521Y010641D02*
X002180Y010641D01*
X002291Y010531D02*
X002033Y010789D01*
X001669Y010789D01*
X001411Y010531D01*
X001411Y010167D01*
X001669Y009909D01*
X002033Y009909D01*
X002291Y010167D01*
X002291Y010531D01*
X002291Y010483D02*
X002411Y010483D01*
X002411Y010324D02*
X002291Y010324D01*
X002290Y010166D02*
X002412Y010166D01*
X002570Y010007D02*
X002131Y010007D01*
X002033Y009789D02*
X001669Y009789D01*
X001411Y009531D01*
X001411Y009167D01*
X001669Y008909D01*
X002033Y008909D01*
X002291Y009167D01*
X002291Y009531D01*
X002033Y009789D01*
X002132Y009690D02*
X002570Y009690D01*
X002411Y009532D02*
X002290Y009532D01*
X002291Y009373D02*
X002411Y009373D01*
X002411Y009215D02*
X002291Y009215D01*
X002289Y009056D02*
X002180Y009056D01*
X002161Y008897D02*
X001041Y008897D01*
X001041Y008739D02*
X001619Y008739D01*
X001460Y008580D02*
X001041Y008580D01*
X001041Y008422D02*
X001411Y008422D01*
X001411Y008263D02*
X001041Y008263D01*
X001041Y008105D02*
X001473Y008105D01*
X001631Y007946D02*
X001041Y007946D01*
X001041Y007788D02*
X001667Y007788D01*
X001669Y007789D02*
X001411Y007531D01*
X001411Y007167D01*
X001669Y006909D01*
X002033Y006909D01*
X002291Y007167D01*
X002291Y007531D01*
X002033Y007789D01*
X001669Y007789D01*
X001509Y007629D02*
X001041Y007629D01*
X001041Y007471D02*
X001411Y007471D01*
X001411Y007312D02*
X001041Y007312D01*
X001041Y007153D02*
X001424Y007153D01*
X001582Y006995D02*
X001041Y006995D01*
X001041Y006836D02*
X003206Y006836D01*
X003244Y006678D02*
X003144Y006678D01*
X003291Y006519D02*
X004693Y006519D01*
X004693Y006361D02*
X003291Y006361D01*
X003291Y006202D02*
X004693Y006202D01*
X004912Y005885D02*
X005461Y005885D01*
X005461Y005727D02*
X003095Y005727D01*
X003073Y005749D02*
X004775Y005749D01*
X004881Y005854D01*
X005079Y006052D01*
X005364Y006052D01*
X005446Y006134D01*
X005446Y006388D01*
X005445Y006389D01*
X005446Y006390D01*
X005446Y006644D01*
X005445Y006645D01*
X005446Y006646D01*
X005446Y006900D01*
X005445Y006901D01*
X005446Y006902D01*
X005446Y007156D01*
X005445Y007157D01*
X005446Y007158D01*
X005446Y007412D01*
X005445Y007413D01*
X005446Y007414D01*
X005446Y007668D01*
X005445Y007669D01*
X005446Y007670D01*
X005446Y007869D01*
X005450Y007873D01*
X005474Y007914D01*
X005486Y007960D01*
X005486Y008052D01*
X005070Y008052D01*
X005070Y008053D01*
X005069Y008053D01*
X005069Y008301D01*
X004810Y008301D01*
X004764Y008289D01*
X004723Y008265D01*
X004689Y008232D01*
X004681Y008217D01*
X004591Y008308D01*
X004479Y008419D01*
X003896Y008419D01*
X003896Y008487D01*
X003851Y008596D01*
X003768Y008679D01*
X003659Y008724D01*
X003542Y008724D01*
X003461Y008690D01*
X004091Y009320D01*
X004091Y009478D01*
X004091Y011950D01*
X004229Y012089D01*
X004303Y012089D01*
X004303Y012023D01*
X004719Y012023D01*
X004719Y012023D01*
X004303Y012023D01*
X004303Y011930D01*
X004313Y011895D01*
X004303Y011860D01*
X004303Y011767D01*
X004719Y011767D01*
X004719Y011767D01*
X004303Y011767D01*
X004303Y011674D01*
X004316Y011629D01*
X004339Y011588D01*
X004343Y011584D01*
X004343Y011384D01*
X004415Y011313D01*
X004334Y011279D01*
X004251Y011196D01*
X004206Y011087D01*
X004206Y010970D01*
X004251Y010862D01*
X004334Y010779D01*
X004442Y010734D01*
X004559Y010734D01*
X004668Y010779D01*
X004751Y010862D01*
X004796Y010970D01*
X004796Y011055D01*
X004891Y011150D01*
X004891Y011276D02*
X007035Y011276D01*
X006706Y011434D02*
X005096Y011434D01*
X005103Y011593D02*
X006699Y011593D01*
X006666Y011751D02*
X005136Y011751D01*
X005136Y011767D02*
X004720Y011767D01*
X005136Y011767D01*
X005130Y011910D02*
X006671Y011910D01*
X006666Y012068D02*
X005136Y012068D01*
X005136Y012023D02*
X004720Y012023D01*
X004720Y012023D01*
X005136Y012023D01*
X005096Y012227D02*
X006706Y012227D01*
X006706Y012385D02*
X005096Y012385D01*
X005096Y012544D02*
X006706Y012544D01*
X006706Y012702D02*
X005096Y012702D01*
X005096Y012861D02*
X006706Y012861D01*
X006706Y013020D02*
X005096Y013020D01*
X005127Y013178D02*
X006674Y013178D01*
X006666Y013337D02*
X005136Y013337D01*
X005136Y013303D02*
X005136Y013395D01*
X005124Y013441D01*
X005100Y013482D01*
X005066Y013515D01*
X005025Y013539D01*
X004980Y013551D01*
X004720Y013551D01*
X004720Y013303D01*
X005136Y013303D01*
X005087Y013495D02*
X006715Y013495D01*
X007082Y013495D02*
X007082Y013495D01*
X007082Y013337D02*
X007082Y013337D01*
X007449Y013495D02*
X007511Y013495D01*
X007498Y013337D02*
X007511Y013337D01*
X007511Y013178D02*
X007490Y013178D01*
X007473Y013020D02*
X007458Y013020D01*
X007511Y013654D02*
X004241Y013654D01*
X004241Y013812D02*
X007511Y013812D01*
X007511Y013971D02*
X004127Y013971D01*
X003969Y014129D02*
X007511Y014129D01*
X007511Y014288D02*
X003810Y014288D01*
X003652Y014446D02*
X007511Y014446D01*
X007511Y014605D02*
X003217Y014605D01*
X003058Y014764D02*
X007511Y014764D01*
X007489Y014922D02*
X003046Y014922D01*
X003205Y015081D02*
X007330Y015081D01*
X007172Y015239D02*
X003291Y015239D01*
X003291Y015398D02*
X007013Y015398D01*
X006855Y015556D02*
X003266Y015556D01*
X003254Y014129D02*
X003431Y014129D01*
X003590Y013971D02*
X003095Y013971D01*
X003168Y013654D02*
X003861Y013654D01*
X003861Y013495D02*
X003653Y013495D01*
X003812Y013337D02*
X003861Y013337D01*
X004241Y013337D02*
X004303Y013337D01*
X004303Y013303D02*
X004719Y013303D01*
X004719Y013551D01*
X004460Y013551D01*
X004414Y013539D01*
X004373Y013515D01*
X004339Y013482D01*
X004316Y013441D01*
X004303Y013395D01*
X004303Y013303D01*
X004353Y013495D02*
X004241Y013495D01*
X004719Y013495D02*
X004720Y013495D01*
X004719Y013337D02*
X004720Y013337D01*
X003750Y012861D02*
X001041Y012861D01*
X001041Y012702D02*
X001582Y012702D01*
X001424Y012544D02*
X001041Y012544D01*
X001041Y012385D02*
X001411Y012385D01*
X001411Y012227D02*
X001041Y012227D01*
X001041Y012068D02*
X001509Y012068D01*
X001668Y011910D02*
X001041Y011910D01*
X001041Y011751D02*
X001631Y011751D01*
X001472Y011593D02*
X001041Y011593D01*
X001041Y011434D02*
X001411Y011434D01*
X001411Y011276D02*
X001041Y011276D01*
X001041Y011117D02*
X001460Y011117D01*
X001619Y010959D02*
X001041Y010959D01*
X001041Y010800D02*
X003711Y010800D01*
X003711Y010959D02*
X003083Y010959D01*
X003241Y011117D02*
X003711Y011117D01*
X003711Y011276D02*
X003291Y011276D01*
X003291Y011434D02*
X003711Y011434D01*
X003711Y011593D02*
X003229Y011593D01*
X003071Y011751D02*
X003711Y011751D01*
X003711Y011910D02*
X003034Y011910D01*
X003192Y012068D02*
X003711Y012068D01*
X003830Y012227D02*
X003291Y012227D01*
X003144Y013020D02*
X003591Y013020D01*
X003749Y013812D02*
X001041Y013812D01*
X001041Y013654D02*
X001534Y013654D01*
X001411Y013495D02*
X001041Y013495D01*
X001041Y013337D02*
X001411Y013337D01*
X001411Y013178D02*
X001041Y013178D01*
X001041Y013020D02*
X001558Y013020D01*
X001607Y013971D02*
X001041Y013971D01*
X001041Y014129D02*
X001448Y014129D01*
X001411Y014288D02*
X001041Y014288D01*
X001041Y014446D02*
X001411Y014446D01*
X001485Y014605D02*
X001041Y014605D01*
X001041Y014764D02*
X001643Y014764D01*
X001655Y014922D02*
X001041Y014922D01*
X001041Y015081D02*
X001497Y015081D01*
X001411Y015239D02*
X001041Y015239D01*
X001041Y015398D02*
X001411Y015398D01*
X001436Y015556D02*
X001041Y015556D01*
X001041Y015715D02*
X001595Y015715D01*
X004209Y012068D02*
X004303Y012068D01*
X004309Y011910D02*
X004091Y011910D01*
X004091Y011751D02*
X004303Y011751D01*
X004336Y011593D02*
X004091Y011593D01*
X004091Y011434D02*
X004343Y011434D01*
X004330Y011276D02*
X004091Y011276D01*
X004091Y011117D02*
X004218Y011117D01*
X004211Y010959D02*
X004091Y010959D01*
X004091Y010800D02*
X004312Y010800D01*
X004091Y010641D02*
X008411Y010641D01*
X008411Y010483D02*
X004091Y010483D01*
X004091Y010324D02*
X008411Y010324D01*
X008411Y010166D02*
X004091Y010166D01*
X004091Y010007D02*
X008411Y010007D01*
X008411Y009849D02*
X004091Y009849D01*
X004091Y009690D02*
X008411Y009690D01*
X008411Y009532D02*
X004091Y009532D01*
X004091Y009373D02*
X008411Y009373D01*
X008411Y009215D02*
X003985Y009215D01*
X003827Y009056D02*
X008411Y009056D01*
X008411Y008897D02*
X003668Y008897D01*
X003510Y008739D02*
X008411Y008739D01*
X008411Y008580D02*
X003857Y008580D01*
X003896Y008422D02*
X008411Y008422D01*
X008411Y008263D02*
X007781Y008263D01*
X007432Y008263D02*
X007432Y008263D01*
X007432Y008105D02*
X007432Y008105D01*
X007083Y008263D02*
X005419Y008263D01*
X005416Y008265D02*
X005375Y008289D01*
X005330Y008301D01*
X005070Y008301D01*
X005070Y008053D01*
X005486Y008053D01*
X005486Y008145D01*
X005474Y008191D01*
X005450Y008232D01*
X005416Y008265D01*
X005486Y008105D02*
X007016Y008105D01*
X007019Y007946D02*
X005482Y007946D01*
X005446Y007788D02*
X007056Y007788D01*
X006732Y007629D02*
X005446Y007629D01*
X005446Y007471D02*
X006574Y007471D01*
X006415Y007312D02*
X005446Y007312D01*
X005446Y007153D02*
X006257Y007153D01*
X006098Y006995D02*
X005446Y006995D01*
X005446Y006836D02*
X005940Y006836D01*
X005781Y006678D02*
X005446Y006678D01*
X005446Y006519D02*
X005623Y006519D01*
X005464Y006361D02*
X005446Y006361D01*
X005446Y006202D02*
X005461Y006202D01*
X005461Y006044D02*
X005070Y006044D01*
X005461Y005568D02*
X003254Y005568D01*
X003291Y005531D02*
X003073Y005749D01*
X003291Y005531D02*
X003291Y005167D01*
X003033Y004909D01*
X002892Y004909D01*
X002691Y004708D01*
X002691Y004161D01*
X002639Y004036D01*
X002543Y003941D01*
X002293Y003691D01*
X002168Y003639D01*
X002033Y003639D01*
X001083Y003639D01*
X000958Y003691D01*
X000863Y003786D01*
X000551Y004098D01*
X000551Y003983D02*
X000666Y003983D01*
X000551Y003824D02*
X000825Y003824D01*
X001019Y003666D02*
X000551Y003666D01*
X000551Y003507D02*
X001421Y003507D01*
X001426Y003509D02*
X001102Y003375D01*
X000855Y003127D01*
X000721Y002804D01*
X000721Y002454D01*
X000855Y002130D01*
X001102Y001883D01*
X001426Y001749D01*
X001776Y001749D01*
X002099Y001883D01*
X002347Y002130D01*
X002481Y002454D01*
X002481Y002804D01*
X002347Y003127D01*
X002099Y003375D01*
X001776Y003509D01*
X001426Y003509D01*
X001780Y003507D02*
X007354Y003507D01*
X007512Y003348D02*
X002126Y003348D01*
X002284Y003190D02*
X007671Y003190D01*
X007830Y003031D02*
X002387Y003031D01*
X002452Y002873D02*
X007988Y002873D01*
X008147Y002714D02*
X002481Y002714D01*
X002481Y002556D02*
X008305Y002556D01*
X008464Y002397D02*
X002457Y002397D01*
X002392Y002239D02*
X008622Y002239D01*
X008781Y002080D02*
X002297Y002080D01*
X002138Y001922D02*
X008939Y001922D01*
X009098Y001763D02*
X001810Y001763D01*
X001391Y001763D02*
X000551Y001763D01*
X000551Y001922D02*
X001064Y001922D01*
X000905Y002080D02*
X000551Y002080D01*
X000551Y002239D02*
X000810Y002239D01*
X000744Y002397D02*
X000551Y002397D01*
X000551Y002556D02*
X000721Y002556D01*
X000721Y002714D02*
X000551Y002714D01*
X000551Y002873D02*
X000749Y002873D01*
X000815Y003031D02*
X000551Y003031D01*
X000551Y003190D02*
X000917Y003190D01*
X001076Y003348D02*
X000551Y003348D01*
X001152Y004458D02*
X002011Y004458D01*
X002011Y004617D02*
X001041Y004617D01*
X001041Y004775D02*
X002011Y004775D01*
X001644Y004934D02*
X001041Y004934D01*
X001041Y005092D02*
X001485Y005092D01*
X001411Y005251D02*
X001041Y005251D01*
X001041Y005409D02*
X001411Y005409D01*
X001448Y005568D02*
X001041Y005568D01*
X001041Y005727D02*
X001606Y005727D01*
X001669Y005909D02*
X002033Y005909D01*
X002291Y006167D01*
X002291Y006531D01*
X002033Y006789D01*
X001669Y006789D01*
X001411Y006531D01*
X001411Y006167D01*
X001669Y005909D01*
X001534Y006044D02*
X001041Y006044D01*
X001041Y006202D02*
X001411Y006202D01*
X001411Y006361D02*
X001041Y006361D01*
X001041Y006519D02*
X001411Y006519D01*
X001558Y006678D02*
X001041Y006678D01*
X001041Y005885D02*
X002203Y005885D01*
X002168Y006044D02*
X002361Y006044D01*
X002411Y006202D02*
X002291Y006202D01*
X002291Y006361D02*
X002411Y006361D01*
X002411Y006519D02*
X002291Y006519D01*
X002144Y006678D02*
X002558Y006678D01*
X002582Y006995D02*
X002119Y006995D01*
X002278Y007153D02*
X002424Y007153D01*
X002411Y007312D02*
X002291Y007312D01*
X002291Y007471D02*
X002411Y007471D01*
X002509Y007629D02*
X002193Y007629D01*
X002034Y007788D02*
X002473Y007788D01*
X002315Y007946D02*
X002070Y007946D01*
X002083Y008739D02*
X002161Y008739D01*
X002541Y008739D02*
X002619Y008739D01*
X002668Y008897D02*
X003131Y008897D01*
X003180Y009056D02*
X003289Y009056D01*
X003291Y009215D02*
X003448Y009215D01*
X003291Y009373D02*
X003606Y009373D01*
X003711Y009532D02*
X003290Y009532D01*
X003132Y009690D02*
X003711Y009690D01*
X003711Y009849D02*
X001041Y009849D01*
X001041Y010007D02*
X001570Y010007D01*
X001412Y010166D02*
X001041Y010166D01*
X001041Y010324D02*
X001411Y010324D01*
X001411Y010483D02*
X001041Y010483D01*
X001041Y010641D02*
X001521Y010641D01*
X001570Y009690D02*
X001041Y009690D01*
X001041Y009532D02*
X001411Y009532D01*
X001411Y009373D02*
X001041Y009373D01*
X001041Y009215D02*
X001411Y009215D01*
X001521Y009056D02*
X001041Y009056D01*
X003131Y010007D02*
X003711Y010007D01*
X003711Y010166D02*
X003290Y010166D01*
X003291Y010324D02*
X003711Y010324D01*
X003711Y010483D02*
X003291Y010483D01*
X003180Y010641D02*
X003711Y010641D01*
X004689Y010800D02*
X008411Y010800D01*
X008331Y010959D02*
X008063Y010959D01*
X008222Y011117D02*
X008306Y011117D01*
X008132Y011593D02*
X007935Y011593D01*
X007352Y010959D02*
X004791Y010959D01*
X004720Y011767D02*
X004720Y011767D01*
X004719Y011767D01*
X004719Y011774D01*
X004719Y012022D01*
X004720Y012022D01*
X004720Y011774D01*
X004720Y011767D01*
X004719Y011910D02*
X004720Y011910D01*
X007082Y011910D02*
X007082Y011910D01*
X007082Y012016D02*
X007082Y011767D01*
X007082Y011767D01*
X007082Y011767D01*
X007082Y012016D01*
X007082Y012022D01*
X007082Y012022D01*
X007082Y012016D01*
X007364Y010946D02*
X007364Y010946D01*
X005069Y008263D02*
X005070Y008263D01*
X005069Y008105D02*
X005070Y008105D01*
X004721Y008263D02*
X004635Y008263D01*
X004357Y007153D02*
X003278Y007153D01*
X003250Y006995D02*
X003119Y006995D01*
X004419Y006678D02*
X004693Y006678D01*
X004693Y006836D02*
X004577Y006836D01*
X005841Y006200D02*
X006979Y007339D01*
X007056Y007339D01*
X007056Y007158D01*
X007057Y007157D01*
X007056Y007156D01*
X007056Y006956D01*
X007052Y006952D01*
X007028Y006911D01*
X007016Y006866D01*
X007016Y006773D01*
X007431Y006773D01*
X007431Y006773D01*
X007016Y006773D01*
X007016Y006680D01*
X007025Y006645D01*
X007016Y006610D01*
X007016Y006517D01*
X007431Y006517D01*
X007431Y006517D01*
X007016Y006517D01*
X007016Y006424D01*
X007028Y006379D01*
X007052Y006338D01*
X007056Y006334D01*
X007056Y006138D01*
X006241Y005324D01*
X006142Y005324D01*
X006034Y005279D01*
X005951Y005196D01*
X005906Y005087D01*
X005906Y004970D01*
X005951Y004862D01*
X006034Y004779D01*
X006142Y004734D01*
X006259Y004734D01*
X006368Y004779D01*
X006451Y004862D01*
X006496Y004970D01*
X006496Y005069D01*
X007477Y006050D01*
X007479Y006050D01*
X007481Y006052D01*
X007726Y006052D01*
X007808Y006134D01*
X007808Y006334D01*
X007812Y006338D01*
X007836Y006379D01*
X007848Y006424D01*
X007848Y006517D01*
X007848Y006610D01*
X007839Y006645D01*
X007848Y006680D01*
X007848Y006773D01*
X007848Y006814D01*
X007884Y006779D01*
X007992Y006734D01*
X008109Y006734D01*
X008161Y006755D01*
X008161Y003358D01*
X008161Y003237D01*
X007591Y003808D01*
X007479Y003919D01*
X006429Y003919D01*
X005841Y004508D01*
X005841Y006200D01*
X005843Y006202D02*
X007056Y006202D01*
X007038Y006361D02*
X006001Y006361D01*
X006160Y006519D02*
X007016Y006519D01*
X007016Y006678D02*
X006319Y006678D01*
X006477Y006836D02*
X007016Y006836D01*
X007056Y006995D02*
X006636Y006995D01*
X006794Y007153D02*
X007056Y007153D01*
X007056Y007312D02*
X006953Y007312D01*
X007432Y006772D02*
X007432Y006772D01*
X007432Y006766D01*
X007432Y006517D01*
X007848Y006517D01*
X007432Y006517D01*
X007432Y006517D01*
X007432Y006517D01*
X007432Y006766D01*
X007432Y006772D01*
X007432Y006773D02*
X007432Y006773D01*
X007848Y006773D01*
X007432Y006773D01*
X007432Y006678D02*
X007432Y006678D01*
X007432Y006519D02*
X007432Y006519D01*
X007848Y006519D02*
X008161Y006519D01*
X008161Y006361D02*
X007825Y006361D01*
X007808Y006202D02*
X008161Y006202D01*
X008161Y006044D02*
X007470Y006044D01*
X007312Y005885D02*
X008161Y005885D01*
X008161Y005727D02*
X007153Y005727D01*
X006994Y005568D02*
X008161Y005568D01*
X008161Y005409D02*
X006836Y005409D01*
X006677Y005251D02*
X008161Y005251D01*
X008161Y005092D02*
X006519Y005092D01*
X006481Y004934D02*
X008161Y004934D01*
X008161Y004775D02*
X006360Y004775D01*
X006042Y004775D02*
X005841Y004775D01*
X005841Y004617D02*
X008161Y004617D01*
X008161Y004458D02*
X005890Y004458D01*
X006049Y004300D02*
X008161Y004300D01*
X008161Y004141D02*
X006207Y004141D01*
X006366Y003983D02*
X008161Y003983D01*
X008161Y003824D02*
X007574Y003824D01*
X007733Y003666D02*
X008161Y003666D01*
X008161Y003507D02*
X007891Y003507D01*
X008050Y003348D02*
X008161Y003348D01*
X008841Y003507D02*
X008841Y005650D01*
X008974Y005784D01*
X009059Y005784D01*
X009168Y005829D01*
X009251Y005912D01*
X009296Y006020D01*
X009296Y006115D01*
X010322Y005089D01*
X010479Y005089D01*
X010318Y005092D02*
X008841Y005092D01*
X008841Y004934D02*
X023761Y004934D01*
X022444Y003983D02*
X021814Y003983D01*
X021910Y003824D02*
X022336Y003824D01*
X022295Y003666D02*
X021450Y003666D01*
X021373Y003666D02*
X016834Y003666D01*
X016824Y003507D02*
X020890Y003507D01*
X020955Y003348D02*
X016758Y003348D01*
X016572Y003190D02*
X021107Y003190D01*
X021374Y003190D02*
X021450Y003190D01*
X021450Y003348D02*
X021374Y003348D01*
X021374Y003507D02*
X021450Y003507D01*
X021450Y003824D02*
X021374Y003824D01*
X021374Y003983D02*
X021450Y003983D01*
X021010Y003983D02*
X016685Y003983D01*
X016794Y003824D02*
X020913Y003824D01*
X021717Y003190D02*
X022558Y003190D01*
X022371Y003348D02*
X021869Y003348D01*
X021933Y003507D02*
X022305Y003507D01*
X025016Y001763D02*
X009635Y001763D01*
X009477Y001922D02*
X025175Y001922D01*
X019201Y007629D02*
X019101Y007529D01*
X019201Y007629D02*
X019201Y008629D01*
X019474Y008739D02*
X027601Y008739D01*
X027601Y008897D02*
X019323Y008897D01*
X019496Y008580D02*
X027601Y008580D01*
X027601Y008422D02*
X019421Y008422D01*
X019421Y008263D02*
X027601Y008263D01*
X027601Y008105D02*
X019421Y008105D01*
X019421Y007946D02*
X027601Y007946D01*
X031346Y015556D02*
X033201Y015556D01*
X033201Y015715D02*
X031522Y015715D01*
X031588Y015873D02*
X033201Y015873D01*
X033201Y016032D02*
X031595Y016032D01*
X031553Y016190D02*
X033201Y016190D01*
X033201Y016349D02*
X031441Y016349D01*
X033201Y018093D02*
X025154Y018093D01*
X024748Y018093D02*
X024734Y018093D01*
X028492Y018251D02*
X033201Y018251D01*
X033201Y018410D02*
X028651Y018410D01*
X028809Y018569D02*
X033201Y018569D01*
X033201Y018727D02*
X028968Y018727D01*
X029041Y018886D02*
X033201Y018886D01*
X033201Y019044D02*
X031360Y019044D01*
X031381Y019055D02*
X031449Y019104D01*
X031508Y019164D01*
X031558Y019232D01*
X031596Y019307D01*
X031622Y019387D01*
X031635Y019470D01*
X031635Y019474D01*
X031139Y019474D01*
X031139Y019550D01*
X031635Y019550D01*
X031635Y019554D01*
X031622Y019637D01*
X031596Y019717D01*
X031558Y019792D01*
X031508Y019860D01*
X031449Y019919D01*
X031381Y019969D01*
X031306Y020007D01*
X031226Y020033D01*
X031143Y020046D01*
X031139Y020046D01*
X031139Y019550D01*
X031063Y019550D01*
X031063Y020046D01*
X031059Y020046D01*
X030976Y020033D01*
X030896Y020007D01*
X030821Y019969D01*
X030753Y019919D01*
X030693Y019860D01*
X030644Y019792D01*
X030606Y019717D01*
X030580Y019637D01*
X030566Y019554D01*
X030566Y019550D01*
X031062Y019550D01*
X031062Y019474D01*
X030566Y019474D01*
X030566Y019470D01*
X030580Y019387D01*
X030606Y019307D01*
X030644Y019232D01*
X030693Y019164D01*
X030753Y019104D01*
X030821Y019055D01*
X030896Y019017D01*
X030976Y018991D01*
X031059Y018978D01*
X031063Y018978D01*
X031063Y019474D01*
X031139Y019474D01*
X031139Y018978D01*
X031143Y018978D01*
X031226Y018991D01*
X031306Y019017D01*
X031381Y019055D01*
X031537Y019203D02*
X033201Y019203D01*
X033201Y019361D02*
X031614Y019361D01*
X031609Y019678D02*
X033201Y019678D01*
X033201Y019520D02*
X031139Y019520D01*
X031062Y019520D02*
X029041Y019520D01*
X029041Y019678D02*
X030593Y019678D01*
X030676Y019837D02*
X029041Y019837D01*
X029041Y019995D02*
X030873Y019995D01*
X031063Y019995D02*
X031139Y019995D01*
X031139Y019837D02*
X031063Y019837D01*
X031063Y019678D02*
X031139Y019678D01*
X031139Y019361D02*
X031063Y019361D01*
X031063Y019203D02*
X031139Y019203D01*
X031139Y019044D02*
X031063Y019044D01*
X030842Y019044D02*
X029041Y019044D01*
X029041Y019203D02*
X030665Y019203D01*
X030588Y019361D02*
X029041Y019361D01*
X029041Y020154D02*
X033201Y020154D01*
X033201Y019995D02*
X031329Y019995D01*
X031525Y019837D02*
X033201Y019837D01*
X033201Y021898D02*
X031430Y021898D01*
X031548Y022057D02*
X033201Y022057D01*
X033201Y022215D02*
X031595Y022215D01*
X031592Y022374D02*
X033201Y022374D01*
X033201Y022532D02*
X031676Y022532D01*
X031835Y022691D02*
X033201Y022691D01*
X033201Y022849D02*
X031993Y022849D01*
X032152Y023008D02*
X033201Y023008D01*
X033201Y023166D02*
X032310Y023166D01*
X032519Y023325D02*
X033201Y023325D01*
X033201Y023483D02*
X032621Y023483D01*
X032621Y023642D02*
X033201Y023642D01*
X033201Y023801D02*
X032621Y023801D01*
X032621Y023959D02*
X033201Y023959D01*
X033201Y024118D02*
X032621Y024118D01*
X032621Y024276D02*
X033201Y024276D01*
X033201Y024435D02*
X032621Y024435D01*
X032621Y024593D02*
X033201Y024593D01*
X033201Y024752D02*
X032621Y024752D01*
X032621Y024910D02*
X033201Y024910D01*
X033201Y025069D02*
X032621Y025069D01*
X032621Y025227D02*
X033201Y025227D01*
X033201Y025386D02*
X032621Y025386D01*
X032621Y025544D02*
X033201Y025544D01*
X033201Y025703D02*
X032621Y025703D01*
X032621Y025862D02*
X033201Y025862D01*
X033201Y026020D02*
X032621Y026020D01*
X032621Y026179D02*
X033201Y026179D01*
X033201Y026337D02*
X032621Y026337D01*
X032621Y026496D02*
X033201Y026496D01*
X033201Y026654D02*
X032621Y026654D01*
X032621Y026813D02*
X033201Y026813D01*
X033201Y026971D02*
X032569Y026971D01*
X032401Y026829D02*
X031901Y027329D01*
X031212Y027329D01*
X031101Y027218D01*
X028390Y027218D01*
X026801Y025629D01*
X025101Y025629D01*
X023351Y027379D01*
X020751Y027379D01*
X020151Y027979D01*
X020428Y028081D02*
X027571Y028081D01*
X027571Y027923D02*
X027731Y027923D01*
X027731Y028081D02*
X033201Y028081D01*
X033201Y027923D02*
X028602Y027923D01*
X028556Y027764D02*
X033201Y027764D01*
X033201Y027606D02*
X031412Y027606D01*
X030789Y027606D02*
X028476Y027606D01*
X028354Y027447D02*
X030661Y027447D01*
X030668Y026971D02*
X028454Y026971D01*
X028296Y026813D02*
X030807Y026813D01*
X031002Y026334D02*
X030821Y026259D01*
X030682Y026120D01*
X030606Y025938D01*
X030606Y025741D01*
X030682Y025560D01*
X030821Y025421D01*
X031002Y025346D01*
X031199Y025346D01*
X031381Y025421D01*
X031520Y025560D01*
X031595Y025741D01*
X031595Y025938D01*
X031520Y026120D01*
X031381Y026259D01*
X031199Y026334D01*
X031002Y026334D01*
X030741Y026179D02*
X027662Y026179D01*
X027820Y026337D02*
X032181Y026337D01*
X032181Y026179D02*
X031461Y026179D01*
X031561Y026020D02*
X032181Y026020D01*
X032181Y025862D02*
X031595Y025862D01*
X031579Y025703D02*
X032181Y025703D01*
X032181Y025544D02*
X031505Y025544D01*
X031297Y025386D02*
X032181Y025386D01*
X032181Y025227D02*
X017441Y025227D01*
X017441Y025069D02*
X032181Y025069D01*
X032181Y024910D02*
X031393Y024910D01*
X031551Y024752D02*
X032181Y024752D01*
X032181Y024593D02*
X031620Y024593D01*
X031602Y024276D02*
X032181Y024276D01*
X032181Y024118D02*
X031511Y024118D01*
X031139Y024118D02*
X031063Y024118D01*
X031063Y024276D02*
X031139Y024276D01*
X031139Y024435D02*
X032181Y024435D01*
X032351Y023518D02*
X031101Y022268D01*
X032351Y023518D02*
X032401Y023518D01*
X032401Y026829D01*
X032181Y026654D02*
X028137Y026654D01*
X027979Y026496D02*
X032181Y026496D01*
X032106Y026813D02*
X031395Y026813D01*
X031534Y026971D02*
X031947Y026971D01*
X032252Y027288D02*
X033201Y027288D01*
X033201Y027130D02*
X032411Y027130D01*
X032094Y027447D02*
X033201Y027447D01*
X033201Y028240D02*
X028613Y028240D01*
X028580Y028398D02*
X033201Y028398D01*
X033201Y028557D02*
X028516Y028557D01*
X028414Y028715D02*
X033201Y028715D01*
X033201Y028874D02*
X030078Y028874D01*
X030249Y029032D02*
X033201Y029032D01*
X033201Y029191D02*
X030372Y029191D01*
X030438Y029350D02*
X033201Y029350D01*
X033201Y029508D02*
X030481Y029508D01*
X030481Y029667D02*
X033201Y029667D01*
X033201Y029825D02*
X030472Y029825D01*
X030406Y029984D02*
X033201Y029984D01*
X033201Y030142D02*
X030332Y030142D01*
X030173Y030301D02*
X033201Y030301D01*
X033201Y030459D02*
X029895Y030459D01*
X028870Y030142D02*
X026279Y030142D01*
X026271Y030148D02*
X026173Y030195D01*
X026070Y030231D01*
X025964Y030255D01*
X025881Y030264D01*
X025881Y029377D01*
X026768Y029377D01*
X026759Y029460D01*
X026734Y029566D01*
X026698Y029669D01*
X026651Y029767D01*
X026593Y029859D01*
X026525Y029945D01*
X026448Y030022D01*
X026363Y030090D01*
X026271Y030148D01*
X026486Y029984D02*
X028795Y029984D01*
X028730Y029825D02*
X026615Y029825D01*
X026699Y029667D02*
X028721Y029667D01*
X028721Y029508D02*
X026748Y029508D01*
X026768Y029217D02*
X025881Y029217D01*
X025881Y028330D01*
X025964Y028340D01*
X026070Y028364D01*
X026173Y028400D01*
X026271Y028447D01*
X026363Y028505D01*
X026448Y028573D01*
X026525Y028650D01*
X026593Y028735D01*
X026651Y028827D01*
X026698Y028926D01*
X026734Y029028D01*
X026759Y029135D01*
X026768Y029217D01*
X026765Y029191D02*
X028830Y029191D01*
X028764Y029350D02*
X025881Y029350D01*
X025881Y029377D02*
X025881Y029217D01*
X025721Y029217D01*
X025721Y028330D01*
X025638Y028340D01*
X025532Y028364D01*
X025429Y028400D01*
X025331Y028447D01*
X025239Y028505D01*
X025153Y028573D01*
X025076Y028650D01*
X025008Y028735D01*
X024950Y028827D01*
X024903Y028926D01*
X024867Y029028D01*
X024843Y029135D01*
X024834Y029217D01*
X025721Y029217D01*
X025721Y029377D01*
X024834Y029377D01*
X024843Y029460D01*
X024867Y029566D01*
X024903Y029669D01*
X024950Y029767D01*
X025008Y029859D01*
X025076Y029945D01*
X025153Y030022D01*
X025239Y030090D01*
X025331Y030148D01*
X025429Y030195D01*
X025532Y030231D01*
X025638Y030255D01*
X025721Y030264D01*
X025721Y029377D01*
X025881Y029377D01*
X025881Y029508D02*
X025721Y029508D01*
X025721Y029350D02*
X022660Y029350D01*
X022709Y029399D02*
X022784Y029580D01*
X022784Y029777D01*
X022709Y029959D01*
X022570Y030098D01*
X022388Y030173D01*
X022191Y030173D01*
X022010Y030098D01*
X021871Y029959D01*
X021795Y029777D01*
X021795Y029580D01*
X021871Y029399D01*
X022010Y029260D01*
X022191Y029184D01*
X022388Y029184D01*
X022570Y029260D01*
X022709Y029399D01*
X022754Y029508D02*
X024854Y029508D01*
X024902Y029667D02*
X022784Y029667D01*
X022764Y029825D02*
X024987Y029825D01*
X025115Y029984D02*
X022684Y029984D01*
X022463Y030142D02*
X025322Y030142D01*
X025721Y030142D02*
X025881Y030142D01*
X025881Y029984D02*
X025721Y029984D01*
X025721Y029825D02*
X025881Y029825D01*
X025881Y029667D02*
X025721Y029667D01*
X025721Y029191D02*
X025881Y029191D01*
X025881Y029032D02*
X025721Y029032D01*
X025721Y028874D02*
X025881Y028874D01*
X025881Y028715D02*
X025721Y028715D01*
X025721Y028557D02*
X025881Y028557D01*
X025881Y028398D02*
X025721Y028398D01*
X025433Y028398D02*
X019191Y028398D01*
X019182Y028240D02*
X020010Y028240D01*
X019874Y028081D02*
X019084Y028081D01*
X018925Y027923D02*
X019856Y027923D01*
X019948Y027764D02*
X018767Y027764D01*
X018608Y027606D02*
X020213Y027606D01*
X020371Y027447D02*
X018450Y027447D01*
X018291Y027288D02*
X020530Y027288D01*
X020835Y027606D02*
X025156Y027606D01*
X025274Y027724D02*
X025012Y027462D01*
X024871Y027120D01*
X024871Y026750D01*
X025012Y026408D01*
X025274Y026147D01*
X025616Y026005D01*
X025986Y026005D01*
X026328Y026147D01*
X026589Y026408D01*
X026731Y026750D01*
X026731Y027120D01*
X026589Y027462D01*
X026328Y027724D01*
X025986Y027865D01*
X025616Y027865D01*
X025274Y027724D01*
X025372Y027764D02*
X020677Y027764D01*
X020518Y027923D02*
X026700Y027923D01*
X026747Y027764D02*
X026230Y027764D01*
X026446Y027606D02*
X026826Y027606D01*
X026949Y027447D02*
X026595Y027447D01*
X026661Y027288D02*
X027145Y027288D01*
X027571Y027288D02*
X027731Y027288D01*
X027731Y027447D02*
X027571Y027447D01*
X027571Y027606D02*
X027731Y027606D01*
X027731Y027764D02*
X027571Y027764D01*
X027571Y028240D02*
X027731Y028240D01*
X027731Y028398D02*
X027571Y028398D01*
X027571Y028557D02*
X027731Y028557D01*
X027731Y028715D02*
X027571Y028715D01*
X027571Y028874D02*
X027731Y028874D01*
X027731Y029032D02*
X027571Y029032D01*
X027333Y029032D02*
X026735Y029032D01*
X026673Y028874D02*
X027046Y028874D01*
X026888Y028715D02*
X026577Y028715D01*
X026428Y028557D02*
X026787Y028557D01*
X026722Y028398D02*
X026168Y028398D01*
X026689Y028240D02*
X020292Y028240D01*
X020707Y029184D02*
X020787Y029158D01*
X020870Y029144D01*
X020874Y029144D01*
X020874Y029640D01*
X020950Y029640D01*
X020950Y029144D01*
X020954Y029144D01*
X021037Y029158D01*
X021117Y029184D01*
X021192Y029222D01*
X021260Y029271D01*
X021319Y029331D01*
X021369Y029399D01*
X021407Y029474D01*
X021433Y029554D01*
X021446Y029637D01*
X021446Y029641D01*
X020950Y029641D01*
X020950Y029717D01*
X021446Y029717D01*
X021446Y029721D01*
X021433Y029804D01*
X021407Y029884D01*
X021369Y029959D01*
X021319Y030027D01*
X021260Y030086D01*
X021192Y030136D01*
X021117Y030174D01*
X021037Y030200D01*
X020954Y030213D01*
X020950Y030213D01*
X020950Y029717D01*
X020874Y029717D01*
X020874Y030213D01*
X020870Y030213D01*
X020787Y030200D01*
X020707Y030174D01*
X020632Y030136D01*
X020564Y030086D01*
X020504Y030027D01*
X020455Y029959D01*
X020417Y029884D01*
X020391Y029804D01*
X020377Y029721D01*
X020377Y029717D01*
X020873Y029717D01*
X020873Y029641D01*
X020377Y029641D01*
X020377Y029637D01*
X020391Y029554D01*
X020417Y029474D01*
X020455Y029399D01*
X020504Y029331D01*
X020564Y029271D01*
X020632Y029222D01*
X020707Y029184D01*
X020692Y029191D02*
X019191Y029191D01*
X019191Y029032D02*
X024866Y029032D01*
X024837Y029191D02*
X022404Y029191D01*
X022176Y029191D02*
X021131Y029191D01*
X020950Y029191D02*
X020874Y029191D01*
X020874Y029350D02*
X020950Y029350D01*
X020950Y029508D02*
X020874Y029508D01*
X020873Y029667D02*
X019191Y029667D01*
X019191Y029825D02*
X020398Y029825D01*
X020473Y029984D02*
X019127Y029984D01*
X018968Y030142D02*
X020644Y030142D01*
X020874Y030142D02*
X020950Y030142D01*
X020950Y029984D02*
X020874Y029984D01*
X020874Y029825D02*
X020950Y029825D01*
X020950Y029667D02*
X021795Y029667D01*
X021815Y029825D02*
X021426Y029825D01*
X021351Y029984D02*
X021896Y029984D01*
X022117Y030142D02*
X021179Y030142D01*
X021418Y029508D02*
X021825Y029508D01*
X021920Y029350D02*
X021333Y029350D01*
X020491Y029350D02*
X019191Y029350D01*
X019191Y029508D02*
X020405Y029508D01*
X019191Y028874D02*
X024928Y028874D01*
X025024Y028715D02*
X019191Y028715D01*
X019191Y028557D02*
X025174Y028557D01*
X025006Y027447D02*
X023594Y027447D01*
X023752Y027288D02*
X024941Y027288D01*
X024875Y027130D02*
X023911Y027130D01*
X024069Y026971D02*
X024871Y026971D01*
X024871Y026813D02*
X024228Y026813D01*
X024386Y026654D02*
X024910Y026654D01*
X024976Y026496D02*
X024545Y026496D01*
X024703Y026337D02*
X025083Y026337D01*
X025242Y026179D02*
X024862Y026179D01*
X025021Y026020D02*
X025580Y026020D01*
X025179Y025862D02*
X026722Y025862D01*
X026881Y026020D02*
X026022Y026020D01*
X026360Y026179D02*
X027040Y026179D01*
X027198Y026337D02*
X026518Y026337D01*
X026625Y026496D02*
X027357Y026496D01*
X027515Y026654D02*
X026691Y026654D01*
X026731Y026813D02*
X027674Y026813D01*
X027832Y026971D02*
X026731Y026971D01*
X026727Y027130D02*
X027991Y027130D01*
X027503Y026020D02*
X030640Y026020D01*
X030606Y025862D02*
X027345Y025862D01*
X027186Y025703D02*
X030622Y025703D01*
X030697Y025544D02*
X027028Y025544D01*
X024874Y025544D02*
X017441Y025544D01*
X017441Y025386D02*
X030905Y025386D01*
X030809Y024910D02*
X017441Y024910D01*
X017441Y024752D02*
X030651Y024752D01*
X030582Y024593D02*
X017441Y024593D01*
X017441Y024435D02*
X031062Y024435D01*
X031063Y024593D02*
X031139Y024593D01*
X031139Y024752D02*
X031063Y024752D01*
X031063Y024910D02*
X031139Y024910D01*
X029124Y028874D02*
X028257Y028874D01*
X027970Y029032D02*
X028953Y029032D01*
X033201Y030618D02*
X000585Y030618D01*
X003291Y028398D02*
X004930Y028398D01*
X005045Y028240D02*
X003291Y028240D01*
X004052Y029350D02*
X018511Y029350D01*
X018511Y029508D02*
X004211Y029508D01*
X005374Y029032D02*
X005450Y029032D01*
X005450Y028874D02*
X005374Y028874D01*
X005374Y028715D02*
X005450Y028715D01*
X005450Y028557D02*
X005374Y028557D01*
X005374Y028398D02*
X005450Y028398D01*
X005450Y028240D02*
X005374Y028240D01*
X005778Y028240D02*
X006480Y028240D01*
X006350Y028398D02*
X005894Y028398D01*
X005941Y028557D02*
X006295Y028557D01*
X006295Y028715D02*
X005939Y028715D01*
X005887Y028874D02*
X006356Y028874D01*
X006494Y029032D02*
X005764Y029032D01*
X006715Y023483D02*
X016761Y023483D01*
X016761Y023325D02*
X006873Y023325D01*
X007032Y023166D02*
X013671Y023166D01*
X016031Y023166D02*
X016761Y023166D01*
X016761Y023008D02*
X016189Y023008D01*
X016348Y022849D02*
X016761Y022849D01*
X016761Y022691D02*
X016507Y022691D01*
X016665Y022532D02*
X016761Y022532D01*
X018786Y020313D02*
X008484Y020313D01*
X008476Y019837D02*
X008703Y019837D01*
X009146Y019520D02*
X014241Y019520D01*
X014603Y019995D02*
X019103Y019995D01*
X019262Y019837D02*
X014761Y019837D01*
X014920Y019678D02*
X019420Y019678D01*
X019579Y019520D02*
X015078Y019520D01*
X014444Y020154D02*
X018945Y020154D01*
X017441Y025703D02*
X024715Y025703D01*
X024557Y025862D02*
X017441Y025862D01*
X017441Y026020D02*
X024398Y026020D01*
X024240Y026179D02*
X017441Y026179D01*
X017441Y026337D02*
X024081Y026337D01*
X023923Y026496D02*
X017499Y026496D01*
X017657Y026654D02*
X023764Y026654D01*
X023606Y026813D02*
X017816Y026813D01*
X017974Y026971D02*
X023447Y026971D01*
X023289Y027130D02*
X018133Y027130D01*
X017580Y028240D02*
X016878Y028240D01*
X016860Y028221D02*
X016919Y028281D01*
X016969Y028349D01*
X017007Y028424D01*
X017033Y028504D01*
X017046Y028587D01*
X017046Y028591D01*
X016550Y028591D01*
X016550Y028667D01*
X017046Y028667D01*
X017046Y028671D01*
X017033Y028754D01*
X017007Y028834D01*
X016969Y028909D01*
X016919Y028977D01*
X016860Y029036D01*
X016792Y029086D01*
X016717Y029124D01*
X016637Y029150D01*
X016554Y029163D01*
X016550Y029163D01*
X016550Y028667D01*
X016474Y028667D01*
X016474Y029163D01*
X016470Y029163D01*
X016387Y029150D01*
X016307Y029124D01*
X016232Y029086D01*
X016164Y029036D01*
X016104Y028977D01*
X016055Y028909D01*
X016017Y028834D01*
X015991Y028754D01*
X015977Y028671D01*
X015977Y028667D01*
X016473Y028667D01*
X016473Y028591D01*
X015977Y028591D01*
X015977Y028587D01*
X015991Y028504D01*
X016017Y028424D01*
X016055Y028349D01*
X016104Y028281D01*
X016164Y028221D01*
X016232Y028172D01*
X016307Y028134D01*
X016387Y028108D01*
X016470Y028094D01*
X016474Y028094D01*
X016474Y028590D01*
X016550Y028590D01*
X016550Y028094D01*
X016554Y028094D01*
X016637Y028108D01*
X016717Y028134D01*
X016792Y028172D01*
X016860Y028221D01*
X016994Y028398D02*
X017450Y028398D01*
X017395Y028557D02*
X017041Y028557D01*
X017039Y028715D02*
X017395Y028715D01*
X017456Y028874D02*
X016987Y028874D01*
X016864Y029032D02*
X017594Y029032D01*
X016550Y029032D02*
X016474Y029032D01*
X016474Y028874D02*
X016550Y028874D01*
X016550Y028715D02*
X016474Y028715D01*
X016474Y028557D02*
X016550Y028557D01*
X016550Y028398D02*
X016474Y028398D01*
X016474Y028240D02*
X016550Y028240D01*
X016145Y028240D02*
X014600Y028240D01*
X014570Y028210D02*
X014709Y028349D01*
X014784Y028530D01*
X014784Y028727D01*
X014709Y028909D01*
X014570Y029048D01*
X014388Y029123D01*
X014191Y029123D01*
X014010Y029048D01*
X013871Y028909D01*
X013795Y028727D01*
X013795Y028530D01*
X013871Y028349D01*
X014010Y028210D01*
X014191Y028134D01*
X014388Y028134D01*
X014570Y028210D01*
X014729Y028398D02*
X016030Y028398D01*
X015982Y028557D02*
X014784Y028557D01*
X014784Y028715D02*
X015985Y028715D01*
X016037Y028874D02*
X014723Y028874D01*
X014585Y029032D02*
X016160Y029032D01*
X013994Y029032D02*
X013264Y029032D01*
X013387Y028874D02*
X013856Y028874D01*
X013795Y028715D02*
X013439Y028715D01*
X013441Y028557D02*
X013795Y028557D01*
X013850Y028398D02*
X013394Y028398D01*
X013278Y028240D02*
X013980Y028240D01*
X012950Y028240D02*
X012874Y028240D01*
X012874Y028398D02*
X012950Y028398D01*
X012950Y028557D02*
X012874Y028557D01*
X012874Y028715D02*
X012950Y028715D01*
X012950Y028874D02*
X012874Y028874D01*
X012874Y029032D02*
X012950Y029032D01*
X006676Y020471D02*
X006591Y020471D01*
X006603Y019995D02*
X006667Y019995D01*
X006761Y019837D02*
X006974Y019837D01*
X006920Y019678D02*
X007132Y019678D01*
X008344Y008105D02*
X008411Y008105D01*
X008161Y006678D02*
X007847Y006678D01*
X006961Y006044D02*
X005841Y006044D01*
X005841Y005885D02*
X006803Y005885D01*
X006644Y005727D02*
X005841Y005727D01*
X005841Y005568D02*
X006486Y005568D01*
X006327Y005409D02*
X005841Y005409D01*
X005841Y005251D02*
X006006Y005251D01*
X005908Y005092D02*
X005841Y005092D01*
X005841Y004934D02*
X005921Y004934D01*
X005461Y004934D02*
X003058Y004934D01*
X003217Y005092D02*
X005461Y005092D01*
X005461Y005251D02*
X003291Y005251D01*
X003291Y005409D02*
X005461Y005409D01*
X005461Y004775D02*
X002758Y004775D01*
X002691Y004617D02*
X005461Y004617D01*
X005461Y004458D02*
X002691Y004458D01*
X002691Y004300D02*
X005511Y004300D01*
X005670Y004141D02*
X002682Y004141D01*
X002585Y003983D02*
X005828Y003983D01*
X005987Y003824D02*
X002427Y003824D01*
X002233Y003666D02*
X006145Y003666D01*
X008841Y005251D02*
X010160Y005251D01*
X010001Y005409D02*
X008841Y005409D01*
X008841Y005568D02*
X009843Y005568D01*
X009684Y005727D02*
X008917Y005727D01*
X009224Y005885D02*
X009526Y005885D01*
X009367Y006044D02*
X009296Y006044D01*
X009256Y001604D02*
X000551Y001604D01*
D16*
X005070Y006261D02*
X005070Y006517D01*
X005070Y006773D01*
X005070Y007029D02*
X004501Y007029D01*
X004301Y006829D01*
X003501Y006829D01*
X002851Y007349D02*
X004531Y007349D01*
X004601Y007279D01*
X005064Y007279D01*
X005070Y007285D01*
X005070Y007541D02*
X004739Y007541D01*
X004351Y007929D01*
X003351Y007929D01*
X003251Y007829D01*
X002701Y007829D01*
X002351Y008179D01*
X002351Y008849D01*
X002851Y009349D01*
X002851Y008349D02*
X003901Y009399D01*
X003901Y012029D01*
X004151Y012279D01*
X004720Y012279D01*
X004720Y012535D02*
X003037Y012535D01*
X002851Y012349D01*
X002851Y013349D02*
X003531Y013349D01*
X004101Y012779D01*
X004708Y012779D01*
X004720Y012791D01*
X004720Y013047D02*
X004233Y013047D01*
X004051Y013229D01*
X004051Y013779D01*
X003501Y014329D01*
X002871Y014329D01*
X002851Y014349D01*
X002851Y016349D02*
X002351Y016849D01*
X002351Y018979D01*
X002751Y019379D01*
X002751Y020679D01*
X004701Y022729D02*
X005401Y023429D01*
X006501Y023429D01*
X007101Y022829D01*
X007101Y022529D01*
X006401Y021829D01*
X006401Y019929D01*
X006751Y019579D01*
X006751Y016179D01*
X008001Y014929D01*
X008001Y012929D01*
X007607Y012535D01*
X007082Y012535D01*
X007082Y012791D02*
X007513Y012791D01*
X007701Y012979D01*
X007701Y014979D01*
X006551Y016129D01*
X006551Y019479D01*
X006201Y019829D01*
X006201Y022779D01*
X007401Y022829D02*
X008151Y022079D01*
X008251Y022079D01*
X006851Y020229D02*
X007501Y019579D01*
X008851Y019579D01*
X009101Y019829D01*
X014201Y019829D01*
X015751Y018279D01*
X015751Y017879D01*
X015951Y017679D01*
X016201Y017679D01*
X017201Y017129D02*
X014251Y020079D01*
X008301Y020079D01*
X009851Y014529D02*
X010001Y014529D01*
X010151Y014529D01*
X026801Y014529D01*
X027101Y013529D02*
X027301Y013529D01*
X028701Y012129D01*
X028701Y010929D01*
X027851Y010079D01*
X027851Y004329D01*
X025051Y001529D01*
X009601Y001529D01*
X007401Y003729D01*
X006351Y003729D01*
X005651Y004429D01*
X005651Y006279D01*
X006901Y007529D01*
X007201Y007529D01*
X007450Y007779D02*
X007432Y007797D01*
X007450Y007779D02*
X007751Y007779D01*
X008001Y008029D01*
X008151Y008029D01*
X008351Y007829D01*
X008351Y003279D01*
X009451Y002179D01*
X023401Y002179D01*
X023851Y002629D01*
X023851Y003879D01*
X024751Y004779D01*
X024751Y005229D01*
X024751Y005929D02*
X024651Y005929D01*
X023951Y005229D01*
X023951Y004329D01*
X023501Y003879D01*
X023501Y002579D01*
X023301Y002379D01*
X009701Y002379D01*
X008651Y003429D01*
X008651Y005729D01*
X009001Y006079D01*
X008601Y007079D02*
X010401Y005279D01*
X020301Y005279D01*
X019901Y005529D02*
X021251Y006879D01*
X023251Y006879D01*
X023851Y007479D01*
X022901Y009329D02*
X022901Y012929D01*
X022212Y012929D01*
X022021Y012738D01*
X021892Y012609D01*
X019101Y012609D01*
X019101Y009329D01*
X022901Y009329D01*
X022901Y009406D02*
X019101Y009406D01*
X019101Y009505D02*
X022901Y009505D01*
X022901Y009604D02*
X019101Y009604D01*
X019101Y009702D02*
X022901Y009702D01*
X022901Y009801D02*
X019101Y009801D01*
X019101Y009899D02*
X022901Y009899D01*
X022901Y009998D02*
X019101Y009998D01*
X019101Y010096D02*
X022901Y010096D01*
X022901Y010195D02*
X019101Y010195D01*
X019101Y010293D02*
X022901Y010293D01*
X022901Y010392D02*
X019101Y010392D01*
X019101Y010490D02*
X022901Y010490D01*
X022901Y010589D02*
X019101Y010589D01*
X019101Y010688D02*
X022901Y010688D01*
X022901Y010786D02*
X019101Y010786D01*
X019101Y010885D02*
X022901Y010885D01*
X022901Y010983D02*
X019101Y010983D01*
X019101Y011082D02*
X022901Y011082D01*
X022901Y011180D02*
X019101Y011180D01*
X019101Y011279D02*
X022901Y011279D01*
X022901Y011377D02*
X019101Y011377D01*
X019101Y011476D02*
X022901Y011476D01*
X022901Y011574D02*
X019101Y011574D01*
X019101Y011673D02*
X022901Y011673D01*
X022901Y011771D02*
X019101Y011771D01*
X019101Y011870D02*
X022901Y011870D01*
X022901Y011969D02*
X019101Y011969D01*
X019101Y012067D02*
X022901Y012067D01*
X022901Y012166D02*
X019101Y012166D01*
X019101Y012264D02*
X022901Y012264D01*
X022901Y012363D02*
X019101Y012363D01*
X019101Y012461D02*
X022901Y012461D01*
X022901Y012560D02*
X019101Y012560D01*
X021801Y012829D02*
X015501Y012829D01*
X011101Y008429D01*
X010801Y009129D02*
X011451Y009779D01*
X010801Y009129D02*
X009451Y009129D01*
X008901Y009979D02*
X008901Y007429D01*
X010801Y005529D01*
X019901Y005529D01*
X015301Y008779D02*
X015251Y008729D01*
X012751Y008729D01*
X012451Y007679D02*
X012101Y007329D01*
X011301Y007329D01*
X008601Y007079D02*
X008601Y011079D01*
X009201Y010279D02*
X008901Y009979D01*
X009201Y010279D02*
X009201Y012179D01*
X008101Y012629D02*
X008101Y012779D01*
X009851Y014529D01*
X008101Y012629D02*
X007801Y012329D01*
X004701Y011529D02*
X004701Y011229D01*
X004501Y011029D01*
X003601Y008429D02*
X003801Y008229D01*
X004401Y008229D01*
X004833Y007797D01*
X005070Y007797D01*
X007432Y007029D02*
X008051Y007029D01*
X007707Y006773D02*
X007901Y006579D01*
X007901Y005579D01*
X007951Y005529D01*
X007707Y006773D02*
X007432Y006773D01*
X021201Y018129D02*
X024501Y018129D01*
X024751Y018379D01*
X028351Y018379D01*
X028851Y018879D01*
X028851Y021679D01*
X029001Y021829D01*
X026551Y017879D02*
X024951Y017879D01*
X026551Y017879D02*
X027001Y017429D01*
X028001Y017429D01*
X024501Y013629D02*
X022601Y013629D01*
X021801Y012829D01*
X021941Y012658D02*
X022901Y012658D01*
X022901Y012757D02*
X022040Y012757D01*
X022139Y012855D02*
X022901Y012855D01*
X027251Y012879D02*
X027251Y012679D01*
X027501Y012429D01*
X027501Y012129D01*
X027651Y011979D01*
D17*
X019251Y022579D02*
X019251Y023579D01*
X019651Y023979D01*
X019551Y024079D01*
X010501Y027279D02*
X008301Y027279D01*
X008451Y012579D02*
X008451Y011629D01*
X007851Y011029D01*
X007701Y011029D01*
X007801Y011129D01*
X007801Y011329D01*
X007701Y011029D02*
X007564Y011029D01*
X007082Y011511D01*
D18*
X007082Y012279D02*
X007101Y012329D01*
X007801Y012329D01*
X004720Y011511D02*
X004701Y011529D01*
X002901Y008349D02*
X002851Y008349D01*
X005001Y006229D02*
X005070Y006261D01*
X005001Y006229D02*
X004701Y005929D01*
X002501Y005929D01*
X002001Y005429D01*
X001901Y005429D01*
X001851Y005349D01*
X006201Y005029D02*
X007401Y006229D01*
X007432Y006261D01*
X007432Y007285D02*
X007501Y007329D01*
X007801Y007329D01*
X007901Y007429D01*
X007432Y007541D02*
X007401Y007529D01*
X007201Y007529D01*
X002751Y020679D02*
X002751Y021029D01*
D19*
X013001Y021479D02*
X013001Y022129D01*
X013901Y023029D01*
X015801Y023029D01*
X017701Y021129D01*
X017701Y020779D01*
D20*
X017101Y022479D02*
X017101Y026579D01*
X018851Y028329D01*
X018851Y029779D01*
X018751Y029879D01*
X004101Y029879D01*
X002951Y028729D01*
X002951Y022129D01*
X000701Y019879D01*
X000701Y004429D01*
X001151Y003979D01*
X002101Y003979D01*
X002351Y004229D01*
X002351Y004849D01*
X002851Y005349D01*
X019851Y019729D02*
X017101Y022479D01*
X019851Y019729D02*
X021651Y019729D01*
X022201Y019729D01*
X023151Y021579D02*
X025401Y021579D01*
M02*
